<?xml version="1.0" encoding="UTF-8"?>
<svg class="patternfilter" id="_图层_2" data-name="图层 2" xmlns="http://www.w3.org/2000/svg" viewBox="0 0 746.31 841.89">
  <g id="_1" data-name="1">
    <g>
      <circle class="cls--1" cx="373.16" cy="420.94" r="101.2"/>
      <circle class="cls--1" cx="695.71" cy="238.95" r="50.6"/>
      <circle class="cls--1" cx="692.05" cy="609.29" r="50.6"/>
      <circle class="cls--1" cx="369.49" cy="791.29" r="50.6"/>
      <circle class="cls--1" cx="50.6" cy="602.94" r="50.6"/>
      <circle class="cls--1" cx="54.26" cy="232.6" r="50.6"/>
      <circle class="cls--1" cx="376.82" cy="50.6" r="50.6"/>
      <circle class="cls--1" cx="222.35" cy="127.14" r="32.96"/>
      <circle class="cls--1" cx="552.2" cy="143.44" r="32.96"/>
      <circle class="cls--1" cx="703.01" cy="437.24" r="32.96"/>
      <circle class="cls--1" cx="523.97" cy="714.75" r="32.96"/>
      <circle class="cls--1" cx="194.12" cy="698.45" r="32.96"/>
      <circle class="cls--1" cx="43.31" cy="404.64" r="32.96"/>
      <circle class="cls--1" cx="414.34" cy="246.65" r="14.95"/>
      <circle class="cls--1" cx="495.97" cy="290.59" r="14.95"/>
      <circle class="cls--1" cx="544.69" cy="369.46" r="14.95"/>
      <circle class="cls--1" cx="547.45" cy="462.13" r="14.95"/>
      <circle class="cls--1" cx="503.51" cy="543.76" r="14.95"/>
      <circle class="cls--1" cx="424.64" cy="592.48" r="14.95"/>
      <circle class="cls--1" cx="331.97" cy="595.24" r="14.95"/>
      <circle class="cls--1" cx="250.34" cy="551.3" r="14.95"/>
      <circle class="cls--1" cx="201.62" cy="472.43" r="14.95"/>
      <circle class="cls--1" cx="198.86" cy="379.76" r="14.95"/>
      <circle class="cls--1" cx="242.8" cy="298.13" r="14.95"/>
      <circle class="cls--1" cx="321.68" cy="249.41" r="14.95"/>
      <circle class="cls--1" cx="369.17" cy="164.15" r="14.95"/>
      <circle class="cls--1" cx="517.19" cy="208.31" r="14.95"/>
      <circle class="cls--1" cx="613.1" cy="329.37" r="14.95"/>
      <circle class="cls--1" cx="622.23" cy="483.56" r="14.95"/>
      <circle class="cls--1" cx="541.27" cy="615.1" r="14.95"/>
      <circle class="cls--1" cx="399.51" cy="676.42" r="14.95"/>
      <circle class="cls--1" cx="248.21" cy="645.33" r="14.95"/>
      <circle class="cls--1" cx="142.1" cy="533.08" r="14.95"/>
      <circle class="cls--1" cx="119.57" cy="380.27" r="14.95"/>
      <circle class="cls--1" cx="188.76" cy="242.18" r="14.95"/>
    </g>
  </g>
</svg>