<?xml version="1.0" encoding="UTF-8"?>
<svg class="patternfilter" id="_图层_2" data-name="图层 2" xmlns="http://www.w3.org/2000/svg" viewBox="0 0 849.89 841.89">
  <g id="_2" data-name="2">
    <g>
      <circle class="cls--1" cx="424.94" cy="420.94" r="264.85"/>
      <circle class="cls--1" cx="480.84" cy="44.7" r="44.7"/>
      <circle class="cls--1" cx="606.15" cy="86.51" r="44.7"/>
      <circle class="cls--1" cx="709.61" cy="168.66" r="44.7"/>
      <circle class="cls--1" cx="778.73" cy="281.23" r="44.7"/>
      <circle class="cls--1" cx="805.18" cy="410.66" r="44.7"/>
      <circle class="cls--1" cx="785.76" cy="541.33" r="44.7"/>
      <circle class="cls--1" cx="722.83" cy="657.48" r="44.7"/>
      <circle class="cls--1" cx="623.97" cy="745.1" r="44.7"/>
      <circle class="cls--1" cx="501.1" cy="793.62" r="44.7"/>
      <circle class="cls--1" cx="369.04" cy="797.19" r="44.7"/>
      <circle class="cls--1" cx="243.73" cy="755.38" r="44.7"/>
      <circle class="cls--1" cx="140.28" cy="673.23" r="44.7"/>
      <circle class="cls--1" cx="71.16" cy="560.66" r="44.7"/>
      <circle class="cls--1" cx="44.71" cy="431.23" r="44.7"/>
      <circle class="cls--1" cx="64.12" cy="300.56" r="44.7"/>
      <circle class="cls--1" cx="127.06" cy="184.41" r="44.7"/>
      <circle class="cls--1" cx="225.92" cy="96.79" r="44.7"/>
      <circle class="cls--1" cx="348.79" cy="48.27" r="44.7"/>
      <circle class="cls--1" cx="429.98" cy="139.7" r="12.62"/>
      <circle class="cls--1" cx="478.74" cy="144.85" r="12.62"/>
      <circle class="cls--1" cx="525.87" cy="158.39" r="12.62"/>
      <circle class="cls--1" cx="569.93" cy="179.9" r="12.62"/>
      <circle class="cls--1" cx="609.58" cy="208.74" r="12.62"/>
      <circle class="cls--1" cx="643.62" cy="244.02" r="12.62"/>
      <circle class="cls--1" cx="671.02" cy="284.69" r="12.62"/>
      <circle class="cls--1" cx="690.95" cy="329.49" r="12.62"/>
      <circle class="cls--1" cx="702.79" cy="377.07" r="12.62"/>
      <circle class="cls--1" cx="706.19" cy="425.98" r="12.62"/>
      <circle class="cls--1" cx="701.04" cy="474.74" r="12.62"/>
      <circle class="cls--1" cx="687.5" cy="521.87" r="12.62"/>
      <circle class="cls--1" cx="665.99" cy="565.93" r="12.62"/>
      <circle class="cls--1" cx="637.15" cy="605.58" r="12.62"/>
      <circle class="cls--1" cx="601.86" cy="639.63" r="12.62"/>
      <circle class="cls--1" cx="561.2" cy="667.03" r="12.62"/>
      <circle class="cls--1" cx="516.4" cy="686.95" r="12.62"/>
      <circle class="cls--1" cx="468.82" cy="698.79" r="12.62"/>
      <circle class="cls--1" cx="419.91" cy="702.19" r="12.62"/>
      <circle class="cls--1" cx="371.15" cy="697.04" r="12.62"/>
      <circle class="cls--1" cx="324.02" cy="683.5" r="12.62"/>
      <circle class="cls--1" cx="279.96" cy="661.99" r="12.62"/>
      <circle class="cls--1" cx="240.31" cy="633.15" r="12.62"/>
      <circle class="cls--1" cx="206.26" cy="597.87" r="12.62"/>
      <circle class="cls--1" cx="178.86" cy="557.2" r="12.62"/>
      <circle class="cls--1" cx="158.94" cy="512.4" r="12.62"/>
      <circle class="cls--1" cx="147.1" cy="464.82" r="12.62"/>
      <circle class="cls--1" cx="143.7" cy="415.91" r="12.62"/>
      <circle class="cls--1" cx="148.85" cy="367.15" r="12.62"/>
      <circle class="cls--1" cx="162.38" cy="320.02" r="12.62"/>
      <circle class="cls--1" cx="183.9" cy="275.96" r="12.62"/>
      <circle class="cls--1" cx="212.74" cy="236.31" r="12.62"/>
      <circle class="cls--1" cx="248.02" cy="202.26" r="12.62"/>
      <circle class="cls--1" cx="288.68" cy="174.86" r="12.62"/>
      <circle class="cls--1" cx="333.49" cy="154.94" r="12.62"/>
      <circle class="cls--1" cx="381.07" cy="143.1" r="12.62"/>
      <circle class="cls--1" cx="383.05" cy="117.74" r="6.22"/>
      <circle class="cls--1" cx="414.97" cy="115.02" r="6.22"/>
      <circle class="cls--1" cx="447.01" cy="115.65" r="6.22"/>
      <circle class="cls--1" cx="478.8" cy="119.63" r="6.22"/>
      <circle class="cls--1" cx="510" cy="126.91" r="6.22"/>
      <circle class="cls--1" cx="540.27" cy="137.41" r="6.22"/>
      <circle class="cls--1" cx="569.27" cy="151.02" r="6.22"/>
      <circle class="cls--1" cx="596.7" cy="167.58" r="6.22"/>
      <circle class="cls--1" cx="622.24" cy="186.93" r="6.22"/>
      <circle class="cls--1" cx="645.62" cy="208.83" r="6.22"/>
      <circle class="cls--1" cx="666.58" cy="233.06" r="6.22"/>
      <circle class="cls--1" cx="684.9" cy="259.35" r="6.22"/>
      <circle class="cls--1" cx="700.37" cy="287.4" r="6.22"/>
      <circle class="cls--1" cx="712.82" cy="316.93" r="6.22"/>
      <circle class="cls--1" cx="722.11" cy="347.59" r="6.22"/>
      <circle class="cls--1" cx="728.15" cy="379.05" r="6.22"/>
      <circle class="cls--1" cx="730.87" cy="410.97" r="6.22"/>
      <circle class="cls--1" cx="730.24" cy="443.01" r="6.22"/>
      <circle class="cls--1" cx="726.26" cy="474.8" r="6.22"/>
      <circle class="cls--1" cx="718.98" cy="506" r="6.22"/>
      <circle class="cls--1" cx="708.48" cy="536.27" r="6.22"/>
      <circle class="cls--1" cx="694.87" cy="565.27" r="6.22"/>
      <circle class="cls--1" cx="678.3" cy="592.7" r="6.22"/>
      <circle class="cls--1" cx="658.96" cy="618.24" r="6.22"/>
      <circle class="cls--1" cx="637.06" cy="641.62" r="6.22"/>
      <circle class="cls--1" cx="612.83" cy="662.58" r="6.22"/>
      <circle class="cls--1" cx="586.54" cy="680.9" r="6.22"/>
      <circle class="cls--1" cx="558.48" cy="696.37" r="6.22"/>
      <circle class="cls--1" cx="528.96" cy="708.82" r="6.22"/>
      <circle class="cls--1" cx="498.3" cy="718.11" r="6.22"/>
      <circle class="cls--1" cx="466.84" cy="724.15" r="6.22"/>
      <circle class="cls--1" cx="434.91" cy="726.87" r="6.22"/>
      <circle class="cls--1" cx="402.88" cy="726.24" r="6.22"/>
      <circle class="cls--1" cx="371.09" cy="722.26" r="6.22"/>
      <circle class="cls--1" cx="339.89" cy="714.98" r="6.22"/>
      <circle class="cls--1" cx="309.62" cy="704.48" r="6.22"/>
      <circle class="cls--1" cx="280.61" cy="690.87" r="6.22"/>
      <circle class="cls--1" cx="253.19" cy="674.31" r="6.22"/>
      <circle class="cls--1" cx="227.65" cy="654.96" r="6.22"/>
      <circle class="cls--1" cx="204.27" cy="633.06" r="6.22"/>
      <circle class="cls--1" cx="183.3" cy="608.83" r="6.22"/>
      <circle class="cls--1" cx="164.99" cy="582.54" r="6.22"/>
      <circle class="cls--1" cx="149.52" cy="554.49" r="6.22"/>
      <circle class="cls--1" cx="137.07" cy="524.96" r="6.22"/>
      <circle class="cls--1" cx="127.77" cy="494.3" r="6.22"/>
      <circle class="cls--1" cx="121.73" cy="462.84" r="6.22"/>
      <circle class="cls--1" cx="119.02" cy="430.92" r="6.22"/>
      <circle class="cls--1" cx="119.65" cy="398.88" r="6.22"/>
      <circle class="cls--1" cx="123.63" cy="367.09" r="6.22"/>
      <circle class="cls--1" cx="130.91" cy="335.89" r="6.22"/>
      <circle class="cls--1" cx="141.41" cy="305.62" r="6.22"/>
      <circle class="cls--1" cx="155.02" cy="276.62" r="6.22"/>
      <circle class="cls--1" cx="171.58" cy="249.19" r="6.22"/>
      <circle class="cls--1" cx="190.92" cy="223.65" r="6.22"/>
      <circle class="cls--1" cx="212.83" cy="200.27" r="6.22"/>
      <circle class="cls--1" cx="237.06" cy="179.31" r="6.22"/>
      <circle class="cls--1" cx="263.35" cy="160.99" r="6.22"/>
      <circle class="cls--1" cx="291.4" cy="145.52" r="6.22"/>
      <circle class="cls--1" cx="320.92" cy="133.07" r="6.22"/>
      <circle class="cls--1" cx="351.58" cy="123.78" r="6.22"/>
      <circle class="cls--1" cx="411.41" cy="92.99" r="6.22"/>
      <circle class="cls--1" cx="468.57" cy="95.62" r="6.22"/>
      <circle class="cls--1" cx="524.39" cy="108.14" r="6.22"/>
      <circle class="cls--1" cx="577.2" cy="130.16" r="6.22"/>
      <circle class="cls--1" cx="625.38" cy="161.02" r="6.22"/>
      <circle class="cls--1" cx="667.47" cy="199.77" r="6.22"/>
      <circle class="cls--1" cx="702.2" cy="245.25" r="6.22"/>
      <circle class="cls--1" cx="728.49" cy="296.06" r="6.22"/>
      <circle class="cls--1" cx="745.57" cy="350.67" r="6.22"/>
      <circle class="cls--1" cx="752.9" cy="407.41" r="6.22"/>
      <circle class="cls--1" cx="750.27" cy="464.57" r="6.22"/>
      <circle class="cls--1" cx="737.75" cy="520.4" r="6.22"/>
      <circle class="cls--1" cx="715.73" cy="573.2" r="6.22"/>
      <circle class="cls--1" cx="684.87" cy="621.38" r="6.22"/>
      <circle class="cls--1" cx="646.12" cy="663.48" r="6.22"/>
      <circle class="cls--1" cx="600.64" cy="698.2" r="6.22"/>
      <circle class="cls--1" cx="549.83" cy="724.5" r="6.22"/>
      <circle class="cls--1" cx="495.22" cy="741.57" r="6.22"/>
      <circle class="cls--1" cx="438.48" cy="748.9" r="6.22"/>
      <circle class="cls--1" cx="381.32" cy="746.27" r="6.22"/>
      <circle class="cls--1" cx="325.49" cy="733.75" r="6.22"/>
      <circle class="cls--1" cx="272.68" cy="711.73" r="6.22"/>
      <circle class="cls--1" cx="224.5" cy="680.87" r="6.22"/>
      <circle class="cls--1" cx="182.41" cy="642.12" r="6.22"/>
      <circle class="cls--1" cx="147.69" cy="596.64" r="6.22"/>
      <circle class="cls--1" cx="121.39" cy="545.83" r="6.22"/>
      <circle class="cls--1" cx="104.32" cy="491.22" r="6.22"/>
      <circle class="cls--1" cx="96.99" cy="434.48" r="6.22"/>
      <circle class="cls--1" cx="99.62" cy="377.32" r="6.22"/>
      <circle class="cls--1" cx="112.14" cy="321.49" r="6.22"/>
      <circle class="cls--1" cx="134.16" cy="268.69" r="6.22"/>
      <circle class="cls--1" cx="165.02" cy="220.5" r="6.22"/>
      <circle class="cls--1" cx="203.77" cy="178.41" r="6.22"/>
      <circle class="cls--1" cx="249.25" cy="143.69" r="6.22"/>
      <circle class="cls--1" cx="300.06" cy="117.39" r="6.22"/>
      <circle class="cls--1" cx="354.67" cy="100.32" r="6.22"/>
    </g>
  </g>
</svg>