<?xml version="1.0" encoding="UTF-8"?>
<svg id="_图层_2" data-name="图层 2" xmlns="http://www.w3.org/2000/svg" viewBox="0 0 546.43 541.29">
  <defs>
    <style>
      .cls--1 {
        fill: #231815;
      }
    </style>
  </defs>
  <g id="_图层_1-2" data-name="图层 1">
    <g>
      <circle class="cls--1" cx="273.22" cy="270.65" r="170.28"/>
      <circle class="cls--1" cx="309.16" cy="28.74" r="28.74"/>
      <circle class="cls--1" cx="389.73" cy="55.62" r="28.74"/>
      <circle class="cls--1" cx="456.24" cy="108.44" r="28.74"/>
      <circle class="cls--1" cx="500.68" cy="180.82" r="28.74"/>
      <circle class="cls--1" cx="517.69" cy="264.03" r="28.74"/>
      <circle class="cls--1" cx="505.2" cy="348.05" r="28.74"/>
      <circle class="cls--1" cx="464.74" cy="422.72" r="28.74"/>
      <circle class="cls--1" cx="401.18" cy="479.06" r="28.74"/>
      <circle class="cls--1" cx="322.18" cy="510.25" r="28.74"/>
      <circle class="cls--1" cx="237.28" cy="512.55" r="28.74"/>
      <circle class="cls--1" cx="156.71" cy="485.67" r="28.74"/>
      <circle class="cls--1" cx="90.19" cy="432.85" r="28.74"/>
      <circle class="cls--1" cx="45.75" cy="360.47" r="28.74"/>
      <circle class="cls--1" cx="28.75" cy="277.26" r="28.74"/>
      <circle class="cls--1" cx="41.23" cy="193.24" r="28.74"/>
      <circle class="cls--1" cx="81.69" cy="118.57" r="28.74"/>
      <circle class="cls--1" cx="145.26" cy="62.23" r="28.74"/>
      <circle class="cls--1" cx="224.25" cy="31.04" r="28.74"/>
      <circle class="cls--1" cx="276.45" cy="89.82" r="8.11"/>
      <circle class="cls--1" cx="307.81" cy="93.13" r="8.11"/>
      <circle class="cls--1" cx="338.1" cy="101.83" r="8.11"/>
      <circle class="cls--1" cx="366.43" cy="115.67" r="8.11"/>
      <circle class="cls--1" cx="391.93" cy="134.21" r="8.11"/>
      <circle class="cls--1" cx="413.82" cy="156.89" r="8.11"/>
      <circle class="cls--1" cx="431.43" cy="183.04" r="8.11"/>
      <circle class="cls--1" cx="444.24" cy="211.84" r="8.11"/>
      <circle class="cls--1" cx="451.86" cy="242.43" r="8.11"/>
      <circle class="cls--1" cx="454.04" cy="273.88" r="8.11"/>
      <circle class="cls--1" cx="450.73" cy="305.23" r="8.11"/>
      <circle class="cls--1" cx="442.03" cy="335.53" r="8.11"/>
      <circle class="cls--1" cx="428.2" cy="363.86" r="8.11"/>
      <circle class="cls--1" cx="409.65" cy="389.36" r="8.11"/>
      <circle class="cls--1" cx="386.97" cy="411.25" r="8.11"/>
      <circle class="cls--1" cx="360.82" cy="428.86" r="8.11"/>
      <circle class="cls--1" cx="332.02" cy="441.67" r="8.11"/>
      <circle class="cls--1" cx="301.43" cy="449.28" r="8.11"/>
      <circle class="cls--1" cx="269.98" cy="451.47" r="8.11"/>
      <circle class="cls--1" cx="238.63" cy="448.16" r="8.11"/>
      <circle class="cls--1" cx="208.33" cy="439.46" r="8.11"/>
      <circle class="cls--1" cx="180" cy="425.62" r="8.11"/>
      <circle class="cls--1" cx="154.5" cy="407.08" r="8.11"/>
      <circle class="cls--1" cx="132.62" cy="384.4" r="8.11"/>
      <circle class="cls--1" cx="115" cy="358.25" r="8.11"/>
      <circle class="cls--1" cx="102.19" cy="329.45" r="8.11"/>
      <circle class="cls--1" cx="94.58" cy="298.86" r="8.11"/>
      <circle class="cls--1" cx="92.39" cy="267.41" r="8.11"/>
      <circle class="cls--1" cx="95.7" cy="236.06" r="8.11"/>
      <circle class="cls--1" cx="104.4" cy="205.76" r="8.11"/>
      <circle class="cls--1" cx="118.24" cy="177.43" r="8.11"/>
      <circle class="cls--1" cx="136.78" cy="151.93" r="8.11"/>
      <circle class="cls--1" cx="159.47" cy="130.04" r="8.11"/>
      <circle class="cls--1" cx="185.61" cy="112.43" r="8.11"/>
      <circle class="cls--1" cx="214.41" cy="99.62" r="8.11"/>
      <circle class="cls--1" cx="245.01" cy="92.01" r="8.11"/>
      <circle class="cls--1" cx="246.28" cy="75.7" r="4"/>
      <circle class="cls--1" cx="266.81" cy="73.95" r="4"/>
      <circle class="cls--1" cx="287.4" cy="74.36" r="4"/>
      <circle class="cls--1" cx="307.84" cy="76.92" r="4"/>
      <circle class="cls--1" cx="327.9" cy="81.6" r="4"/>
      <circle class="cls--1" cx="347.36" cy="88.35" r="4"/>
      <circle class="cls--1" cx="366.01" cy="97.1" r="4"/>
      <circle class="cls--1" cx="383.64" cy="107.75" r="4"/>
      <circle class="cls--1" cx="400.07" cy="120.18" r="4"/>
      <circle class="cls--1" cx="415.1" cy="134.27" r="4"/>
      <circle class="cls--1" cx="428.58" cy="149.84" r="4"/>
      <circle class="cls--1" cx="440.35" cy="166.75" r="4"/>
      <circle class="cls--1" cx="450.3" cy="184.79" r="4"/>
      <circle class="cls--1" cx="458.3" cy="203.77" r="4"/>
      <circle class="cls--1" cx="464.28" cy="223.48" r="4"/>
      <circle class="cls--1" cx="468.16" cy="243.71" r="4"/>
      <circle class="cls--1" cx="469.91" cy="264.24" r="4"/>
      <circle class="cls--1" cx="469.5" cy="284.83" r="4"/>
      <circle class="cls--1" cx="466.95" cy="305.27" r="4"/>
      <circle class="cls--1" cx="462.27" cy="325.33" r="4"/>
      <circle class="cls--1" cx="455.51" cy="344.79" r="4"/>
      <circle class="cls--1" cx="446.76" cy="363.44" r="4"/>
      <circle class="cls--1" cx="436.11" cy="381.07" r="4"/>
      <circle class="cls--1" cx="423.68" cy="397.5" r="4"/>
      <circle class="cls--1" cx="409.6" cy="412.53" r="4"/>
      <circle class="cls--1" cx="394.02" cy="426.01" r="4"/>
      <circle class="cls--1" cx="377.12" cy="437.78" r="4"/>
      <circle class="cls--1" cx="359.08" cy="447.73" r="4"/>
      <circle class="cls--1" cx="340.1" cy="455.73" r="4"/>
      <circle class="cls--1" cx="320.38" cy="461.71" r="4"/>
      <circle class="cls--1" cx="300.15" cy="465.59" r="4"/>
      <circle class="cls--1" cx="279.63" cy="467.34" r="4"/>
      <circle class="cls--1" cx="259.03" cy="466.93" r="4"/>
      <circle class="cls--1" cx="238.59" cy="464.38" r="4"/>
      <circle class="cls--1" cx="218.53" cy="459.69" r="4"/>
      <circle class="cls--1" cx="199.07" cy="452.94" r="4"/>
      <circle class="cls--1" cx="180.42" cy="444.19" r="4"/>
      <circle class="cls--1" cx="162.79" cy="433.54" r="4"/>
      <circle class="cls--1" cx="146.37" cy="421.11" r="4"/>
      <circle class="cls--1" cx="131.33" cy="407.02" r="4"/>
      <circle class="cls--1" cx="117.85" cy="391.45" r="4"/>
      <circle class="cls--1" cx="106.08" cy="374.54" r="4"/>
      <circle class="cls--1" cx="96.13" cy="356.5" r="4"/>
      <circle class="cls--1" cx="88.13" cy="337.52" r="4"/>
      <circle class="cls--1" cx="82.15" cy="317.81" r="4"/>
      <circle class="cls--1" cx="78.27" cy="297.58" r="4"/>
      <circle class="cls--1" cx="76.52" cy="277.06" r="4"/>
      <circle class="cls--1" cx="76.93" cy="256.46" r="4"/>
      <circle class="cls--1" cx="79.49" cy="236.02" r="4"/>
      <circle class="cls--1" cx="84.17" cy="215.96" r="4"/>
      <circle class="cls--1" cx="90.92" cy="196.5" r="4"/>
      <circle class="cls--1" cx="99.67" cy="177.85" r="4"/>
      <circle class="cls--1" cx="110.32" cy="160.22" r="4"/>
      <circle class="cls--1" cx="122.75" cy="143.79" r="4"/>
      <circle class="cls--1" cx="136.84" cy="128.76" r="4"/>
      <circle class="cls--1" cx="152.42" cy="115.28" r="4"/>
      <circle class="cls--1" cx="169.32" cy="103.51" r="4"/>
      <circle class="cls--1" cx="187.36" cy="93.56" r="4"/>
      <circle class="cls--1" cx="206.34" cy="85.56" r="4"/>
      <circle class="cls--1" cx="226.05" cy="79.58" r="4"/>
      <circle class="cls--1" cx="264.52" cy="59.79" r="4"/>
      <circle class="cls--1" cx="301.26" cy="61.48" r="4"/>
      <circle class="cls--1" cx="337.16" cy="69.53" r="4"/>
      <circle class="cls--1" cx="371.11" cy="83.69" r="4"/>
      <circle class="cls--1" cx="402.09" cy="103.53" r="4"/>
      <circle class="cls--1" cx="429.15" cy="128.44" r="4"/>
      <circle class="cls--1" cx="451.48" cy="157.68" r="4"/>
      <circle class="cls--1" cx="468.38" cy="190.35" r="4"/>
      <circle class="cls--1" cx="479.36" cy="225.46" r="4"/>
      <circle class="cls--1" cx="484.08" cy="261.94" r="4"/>
      <circle class="cls--1" cx="482.38" cy="298.69" r="4"/>
      <circle class="cls--1" cx="474.33" cy="334.59" r="4"/>
      <circle class="cls--1" cx="460.18" cy="368.54" r="4"/>
      <circle class="cls--1" cx="440.34" cy="399.52" r="4"/>
      <circle class="cls--1" cx="415.42" cy="426.58" r="4"/>
      <circle class="cls--1" cx="386.18" cy="448.9" r="4"/>
      <circle class="cls--1" cx="353.51" cy="465.81" r="4"/>
      <circle class="cls--1" cx="318.4" cy="476.79" r="4"/>
      <circle class="cls--1" cx="281.92" cy="481.5" r="4"/>
      <circle class="cls--1" cx="245.17" cy="479.81" r="4"/>
      <circle class="cls--1" cx="209.27" cy="471.76" r="4"/>
      <circle class="cls--1" cx="175.32" cy="457.61" r="4"/>
      <circle class="cls--1" cx="144.34" cy="437.77" r="4"/>
      <circle class="cls--1" cx="117.28" cy="412.85" r="4"/>
      <circle class="cls--1" cx="94.96" cy="383.61" r="4"/>
      <circle class="cls--1" cx="78.05" cy="350.94" r="4"/>
      <circle class="cls--1" cx="67.07" cy="315.83" r="4"/>
      <circle class="cls--1" cx="62.36" cy="279.35" r="4"/>
      <circle class="cls--1" cx="64.05" cy="242.6" r="4"/>
      <circle class="cls--1" cx="72.1" cy="206.7" r="4"/>
      <circle class="cls--1" cx="86.26" cy="172.75" r="4"/>
      <circle class="cls--1" cx="106.1" cy="141.77" r="4"/>
      <circle class="cls--1" cx="131.01" cy="114.71" r="4"/>
      <circle class="cls--1" cx="160.25" cy="92.39" r="4"/>
      <circle class="cls--1" cx="192.92" cy="75.48" r="4"/>
      <circle class="cls--1" cx="228.03" cy="64.5" r="4"/>
    </g>
  </g>
</svg>