<?xml version="1.0" encoding="UTF-8"?>
<svg id="_图层_2" data-name="图层 2" xmlns="http://www.w3.org/2000/svg" viewBox="0 0 505.06 505.06">
  <defs>
    <style>
      .cls--1 {
        fill: #231815;
      }

      .cls--1, .cls--2, .cls--3 {
        stroke: #231815;
        stroke-miterlimit: 10;
      }

      .cls--2 {
        fill: none;
      }

      .cls--3 {
        fill: #fff;
      }
    </style>
  </defs>
  <g id="_图层_1-2" data-name="图层 1">
    <g>
      <circle class="cls--2" cx="252.53" cy="252.53" r="149.04"/>
      <circle class="cls--1" cx="252.53" cy="252.53" r="41.15"/>
      <circle class="cls--1" cx="303.22" cy="131.41" r="41.15"/>
      <circle class="cls--1" cx="153" cy="166.9" r="41.15"/>
      <circle class="cls--1" cx="140.33" cy="320.73" r="41.15"/>
      <circle class="cls--1" cx="282.72" cy="380.31" r="41.15"/>
      <circle class="cls--1" cx="383.39" cy="263.31" r="41.15"/>
      <circle class="cls--3" cx="223.68" cy="105.2" r="14.94"/>
      <circle class="cls--3" cx="103.5" cy="234.45" r="14.94"/>
      <circle class="cls--3" cx="189.28" cy="388.69" r="14.94"/>
      <circle class="cls--3" cx="362.47" cy="354.76" r="14.94"/>
      <circle class="cls--3" cx="383.73" cy="179.56" r="14.94"/>
      <circle class="cls--1" cx="252.53" cy="8.29" r="7.79"/>
      <circle class="cls--1" cx="294.94" cy="12" r="7.79"/>
      <circle class="cls--1" cx="336.07" cy="23.02" r="7.79"/>
      <circle class="cls--1" cx="374.65" cy="41.01" r="7.79"/>
      <circle class="cls--1" cx="409.53" cy="65.43" r="7.79"/>
      <circle class="cls--1" cx="439.63" cy="95.54" r="7.79"/>
      <circle class="cls--1" cx="464.05" cy="130.41" r="7.79"/>
      <circle class="cls--1" cx="482.05" cy="169" r="7.79"/>
      <circle class="cls--1" cx="493.07" cy="210.12" r="7.79"/>
      <circle class="cls--1" cx="496.78" cy="252.53" r="7.79"/>
      <circle class="cls--1" cx="493.07" cy="294.94" r="7.79"/>
      <circle class="cls--1" cx="482.05" cy="336.07" r="7.79"/>
      <circle class="cls--1" cx="464.05" cy="374.65" r="7.79"/>
      <circle class="cls--1" cx="439.63" cy="409.53" r="7.79"/>
      <circle class="cls--1" cx="409.53" cy="439.63" r="7.79"/>
      <circle class="cls--1" cx="374.65" cy="464.05" r="7.79"/>
      <circle class="cls--1" cx="336.07" cy="482.05" r="7.79"/>
      <circle class="cls--1" cx="294.94" cy="493.07" r="7.79"/>
      <circle class="cls--1" cx="252.53" cy="496.78" r="7.79"/>
      <circle class="cls--1" cx="210.12" cy="493.07" r="7.79"/>
      <circle class="cls--1" cx="169" cy="482.05" r="7.79"/>
      <circle class="cls--1" cx="130.41" cy="464.05" r="7.79"/>
      <circle class="cls--1" cx="95.54" cy="439.63" r="7.79"/>
      <circle class="cls--1" cx="65.43" cy="409.53" r="7.79"/>
      <circle class="cls--1" cx="41.01" cy="374.65" r="7.79"/>
      <circle class="cls--1" cx="23.02" cy="336.07" r="7.79"/>
      <circle class="cls--1" cx="12" cy="294.94" r="7.79"/>
      <circle class="cls--1" cx="8.29" cy="252.53" r="7.79"/>
      <circle class="cls--1" cx="12" cy="210.12" r="7.79"/>
      <circle class="cls--1" cx="23.02" cy="169" r="7.79"/>
      <circle class="cls--1" cx="41.01" cy="130.41" r="7.79"/>
      <circle class="cls--1" cx="65.43" cy="95.54" r="7.79"/>
      <circle class="cls--1" cx="95.54" cy="65.43" r="7.79"/>
      <circle class="cls--1" cx="130.41" cy="41.01" r="7.79"/>
      <circle class="cls--1" cx="169" cy="23.02" r="7.79"/>
      <circle class="cls--1" cx="210.12" cy="12" r="7.79"/>
    </g>
  </g>
</svg>