<?xml version="1.0" encoding="UTF-8"?>
<svg class="patternfilter" id="_图层_2" data-name="图层 2" xmlns="http://www.w3.org/2000/svg" viewBox="0 0 841.89 841.89">
  <g id="_4" data-name="4">
    <g>
      <path class="cls--1" d="M413.33,670.24l-.92-.03c-25.16-.84-49.91-5.44-73.55-13.67l-.46-.16.15-.47c3.3-10.11-.27-21.1-8.88-27.35-10.91-7.91-26.23-5.49-34.15,5.41-.32.44-.64.92-.98,1.46l-.26.42-.42-.25c-15.98-9.48-30.94-20.79-44.47-33.62l-.67-.63.89-.22c15.69-3.78,29.59-13.08,39.12-26.19,22.11-30.44,15.34-73.19-15.09-95.3-28.42-20.63-68.66-16.04-91.61,10.46l-.6.7-.25-.89c-6.41-22.31-9.66-45.52-9.66-68.98,0-1.76.02-3.52.06-5.26v-.49s.5,0,.5,0c10.6-.03,19.92-6.82,23.2-16.89,2.02-6.21,1.5-12.83-1.47-18.65-2.97-5.82-8.02-10.14-14.23-12.16-.53-.17-1.09-.33-1.7-.48l-.48-.12.11-.48c4.05-18.18,10.18-35.92,18.21-52.74l.4-.83.48.78c8.47,13.79,21.62,24.15,37.04,29.17,35.78,11.63,74.35-8.02,85.97-43.8,10.84-33.38-5.94-70.21-38.2-83.87l-.85-.36.76-.52c20.81-14.1,43.55-24.92,67.57-32.15l.47-.14.15.47c3.27,10.1,12.62,16.89,23.25,16.89,13.48,0,24.45-10.96,24.45-24.44,0-.62-.02-1.18-.07-1.72l-.04-.49.49-.05c18.11-1.72,37.29-1.4,55.75.99l.91.12-.6.7c-10.49,12.32-16.27,28.02-16.27,44.22,0,37.62,30.6,68.22,68.22,68.22,35.08,0,64.93-27.33,67.97-62.22l.08-.92.73.57c19.78,15.45,37.07,33.72,51.41,54.32l.28.4-.39.29c-8.57,6.25-12.13,17.23-8.85,27.32,4.17,12.81,17.98,19.86,30.8,15.7.57-.19,1.13-.39,1.67-.62l.45-.19.2.45c7.41,17.1,12.87,35.06,16.24,53.36l.17.9-.85-.35c-14.95-6.18-31.68-6.82-47.09-1.82-17.33,5.63-31.43,17.68-39.71,33.91-8.27,16.24-9.73,34.73-4.09,52.06,10.85,33.39,46.1,53.33,80.25,45.39l.9-.21-.31.87c-8.54,23.55-20.61,45.66-35.85,65.7l-.3.39-.4-.29c-8.59-6.22-20.13-6.21-28.71.03-10.9,7.93-13.32,23.25-5.4,34.15.34.47.7.92,1.06,1.35l.31.37-.37.32c-13.98,12.33-29.35,23.09-45.69,31.99l-.81.44.07-.92c1.26-16.14-3.29-32.25-12.83-45.37-22.11-30.43-64.86-37.2-95.29-15.09-28.37,20.62-36.45,60.27-18.41,90.28l.47.79ZM339.65,655.76c23.12,7.99,47.29,12.51,71.88,13.42-8.52-14.61-11.38-31.77-8.03-48.45,3.43-17.07,13.08-32.12,27.17-42.36,30.88-22.43,74.25-15.57,96.69,15.31,9.49,13.06,14.12,29.05,13.08,45.12,15.84-8.7,30.75-19.16,44.34-31.11-.27-.33-.53-.68-.79-1.03-8.25-11.35-5.73-27.3,5.62-35.55,8.8-6.4,20.59-6.5,29.49-.31,14.86-19.62,26.67-41.21,35.1-64.19-16.54,3.61-33.76,1.03-48.6-7.3-15.2-8.53-26.54-22.37-31.93-38.96-5.71-17.59-4.24-36.35,4.15-52.82,8.39-16.48,22.7-28.7,40.29-34.41,15.35-4.98,31.98-4.45,46.93,1.5-3.34-17.76-8.66-35.18-15.82-51.8-.42.16-.85.32-1.29.46-13.34,4.33-27.72-3-32.06-16.34-3.36-10.35.18-21.6,8.82-28.15-14.05-20.1-30.94-37.98-50.21-53.14-1.69,16.83-9.48,32.4-21.99,43.92-12.81,11.8-29.47,18.3-46.9,18.3-38.17,0-69.22-31.05-69.22-69.22,0-16.12,5.65-31.77,15.92-44.16-17.94-2.25-36.54-2.55-54.13-.92.02.41.04.84.04,1.31,0,14.03-11.42,25.44-25.45,25.44-10.91,0-20.51-6.86-24.05-17.12-23.46,7.12-45.68,17.67-66.07,31.37,15.49,6.8,27.9,19.01,35,34.47,7.27,15.83,8.31,33.68,2.92,50.26-5.71,17.59-17.93,31.89-34.41,40.29s-35.23,9.87-52.82,4.15c-15.35-4.99-28.49-15.21-37.1-28.81-7.73,16.36-13.67,33.58-17.63,51.22.46.12.89.25,1.3.38,6.47,2.1,11.73,6.6,14.81,12.65,3.09,6.06,3.63,12.95,1.53,19.42-3.36,10.33-12.83,17.34-23.66,17.58-.03,1.58-.05,3.16-.05,4.76,0,23.06,3.15,45.87,9.37,67.82,11.25-12.65,26.7-20.69,43.61-22.67,17.31-2.03,34.62,2.5,48.73,12.75,30.88,22.44,37.75,65.82,15.31,96.7-9.49,13.05-23.25,22.38-38.81,26.35,13.18,12.41,27.71,23.38,43.21,32.61.26-.4.51-.76.76-1.11,8.25-11.34,24.19-13.87,35.55-5.63,8.83,6.41,12.57,17.61,9.39,28Z"/>
      <circle class="cls--1" cx="420.94" cy="420.94" r="68.72"/>
      <path class="cls--1" d="M574.33,218.65c0,2.04-.09,4.05-.26,6.04-3.06,35.12-32.55,62.68-68.47,62.68-37.95,0-68.72-30.77-68.72-68.72,0-16.99,6.17-32.54,16.39-44.54,12.61-14.8,31.37-24.18,52.33-24.18,37.96,0,68.73,30.77,68.73,68.72Z"/>
      <path class="cls--1" d="M320.07,299.15c-11.73,36.1-50.5,55.85-86.6,44.12-16.17-5.26-29.06-15.94-37.31-29.38-10.17-16.55-13.28-37.29-6.81-57.21,11.73-36.1,50.5-55.85,86.6-44.12,1.93.63,3.81,1.33,5.64,2.11,32.47,13.74,49.58,50.31,38.48,84.48Z"/>
      <path class="cls--1" d="M289.14,575.24c-9.99,13.73-24.1,22.69-39.41,26.38-18.9,4.58-39.61,1.15-56.58-11.18-30.71-22.31-37.51-65.29-15.2-95.99,1.18-1.62,2.42-3.18,3.71-4.67,23.11-26.68,63.19-31.66,92.28-10.54,30.7,22.31,37.51,65.29,15.2,96Z"/>
      <path class="cls--1" d="M539.87,639.67c-1.51,19.37-11.18,37.98-28.12,50.29-30.71,22.31-73.68,15.51-95.99-15.2-1.2-1.65-2.31-3.34-3.34-5.05-18.17-30.21-10.51-69.83,18.54-90.94,30.71-22.31,73.68-15.5,95.99,15.2,10,13.76,14.15,29.98,12.92,45.7Z"/>
      <path class="cls--1" d="M660.73,504.31c-1.91.62-3.83,1.15-5.75,1.59h0c-34.37,8-69.73-11.53-80.84-45.71-11.73-36.1,8.02-74.87,44.12-86.6,16.17-5.25,32.87-4.19,47.44,1.83,17.96,7.42,32.68,22.36,39.16,42.29,11.72,36.1-8.03,74.87-44.13,86.6Z"/>
      <path class="cls--1" d="M372.75,200.32c-11.07,0-20.8-7.07-24.21-17.59-.83-2.53-1.24-5.17-1.24-7.85,0-14.03,11.42-25.45,25.45-25.45,13.31,0,24.46,10.39,25.38,23.66.05.55.07,1.14.07,1.79,0,14.03-11.42,25.44-25.45,25.44ZM372.75,150.43c-13.48,0-24.45,10.97-24.45,24.45,0,2.58.4,5.12,1.2,7.54,3.27,10.11,12.62,16.9,23.25,16.9,13.48,0,24.45-10.96,24.45-24.44,0-.62-.02-1.18-.07-1.72-.89-12.75-11.6-22.73-24.38-22.73Z"/>
      <path class="cls--1" d="M171.98,416.19c-2.66,0-5.29-.42-7.83-1.24-13.34-4.34-20.67-18.73-16.33-32.07,4.09-12.63,17.4-20.02,30.29-16.84.64.15,1.22.32,1.78.5,6.47,2.1,11.73,6.6,14.81,12.65,3.09,6.06,3.63,12.95,1.53,19.42h0c-3.41,10.49-13.11,17.55-24.14,17.58h-.1ZM172.06,366.3c-10.36,0-19.97,6.66-23.28,16.89-2.02,6.21-1.5,12.83,1.47,18.65,2.96,5.82,8.02,10.14,14.22,12.16,2.47.8,5.05,1.17,7.61,1.2,10.6-.03,19.92-6.82,23.2-16.89h0c2.02-6.21,1.5-12.83-1.47-18.65-2.97-5.82-8.02-10.14-14.23-12.16-.53-.17-1.09-.33-1.7-.48-1.94-.48-3.89-.71-5.81-.71Z"/>
      <path class="cls--1" d="M315.26,673.79c-5.19,0-10.42-1.58-14.93-4.85-10.75-7.83-13.67-22.77-6.65-34.03.35-.56.68-1.06,1.02-1.52,8.25-11.34,24.19-13.87,35.55-5.63,8.96,6.51,12.68,17.95,9.24,28.47-.81,2.53-2.03,4.91-3.61,7.08-4.97,6.85-12.75,10.48-20.62,10.48ZM315.33,623.91c-7.57,0-15.04,3.49-19.82,10.06-.32.44-.64.92-.98,1.46-6.75,10.81-3.94,25.17,6.39,32.69,10.91,7.92,26.23,5.5,34.15-5.41,1.52-2.09,2.69-4.38,3.47-6.8h0c3.3-10.11-.27-21.1-8.88-27.35-4.33-3.14-9.35-4.65-14.34-4.65Z"/>
      <path class="cls--1" d="M604.6,617.12c-7.3,0-14.52-3.11-19.51-9.05-.38-.45-.75-.92-1.1-1.41-8.25-11.35-5.73-27.3,5.62-35.55,8.93-6.49,20.95-6.5,29.89-.03,2.16,1.56,4.07,3.46,5.66,5.66,4,5.5,5.61,12.22,4.55,18.94-1.06,6.71-4.68,12.61-10.18,16.6-4.48,3.26-9.72,4.84-14.93,4.84ZM604.57,567.23c-5.04,0-10.08,1.56-14.38,4.68-10.9,7.93-13.32,23.25-5.4,34.15.34.47.7.92,1.06,1.35,8.21,9.79,22.74,11.57,33.08,4.05h0c5.28-3.83,8.76-9.5,9.78-15.95,1.02-6.45-.53-12.91-4.37-18.19-1.53-2.11-3.36-3.94-5.44-5.44-4.29-3.1-9.31-4.66-14.34-4.66Z"/>
      <path class="cls--1" d="M640.1,324.52c-10.73,0-20.73-6.84-24.23-17.58-3.41-10.51.29-21.93,9.21-28.44,2.14-1.56,4.54-2.79,7.13-3.63,13.34-4.33,27.72,3,32.06,16.34,4.1,12.63-2.31,26.43-14.6,31.43-.57.23-1.15.45-1.74.64-2.6.84-5.24,1.24-7.83,1.24ZM640.05,274.62c-2.49,0-5.03.38-7.53,1.19-2.49.81-4.79,1.99-6.85,3.49-8.57,6.25-12.13,17.23-8.85,27.32,4.17,12.81,17.98,19.86,30.8,15.7.57-.19,1.13-.39,1.67-.62h0c11.81-4.8,17.97-18.06,14.02-30.19-3.36-10.32-12.97-16.89-23.28-16.89Z"/>
      <circle class="cls--1" cx="420.94" cy="13.01" r="13.01"/>
      <circle class="cls--1" cx="491.78" cy="19.21" r="13.01"/>
      <circle class="cls--1" cx="560.47" cy="37.61" r="13.01"/>
      <circle class="cls--1" cx="624.91" cy="67.66" r="13.01"/>
      <circle class="cls--1" cx="683.16" cy="108.45" r="13.01"/>
      <circle class="cls--1" cx="733.44" cy="158.73" r="13.01"/>
      <circle class="cls--1" cx="774.23" cy="216.98" r="13.01"/>
      <circle class="cls--1" cx="804.28" cy="281.42" r="13.01"/>
      <circle class="cls--1" cx="822.68" cy="350.11" r="13.01"/>
      <circle class="cls--1" cx="828.88" cy="420.94" r="13.01"/>
      <circle class="cls--1" cx="822.68" cy="491.78" r="13.01"/>
      <circle class="cls--1" cx="804.28" cy="560.47" r="13.01"/>
      <circle class="cls--1" cx="774.23" cy="624.91" r="13.01"/>
      <circle class="cls--1" cx="733.44" cy="683.16" r="13.01"/>
      <circle class="cls--1" cx="683.16" cy="733.44" r="13.01"/>
      <circle class="cls--1" cx="624.91" cy="774.23" r="13.01"/>
      <circle class="cls--1" cx="560.47" cy="804.28" r="13.01"/>
      <g>
        <circle class="cls-1" cx="491.78" cy="822.68" r="13.01"/>
        <path class="cls-1" d="M491.78,836.19c-6.43,0-12.14-4.62-13.3-11.17-1.29-7.33,3.62-14.35,10.96-15.65,7.33-1.3,14.35,3.62,15.65,10.96h0c1.29,7.33-3.62,14.36-10.96,15.65-.79.14-1.58.21-2.35.21ZM491.79,810.17c-.72,0-1.45.06-2.18.19-6.79,1.2-11.34,7.7-10.15,14.49,1.2,6.79,7.69,11.34,14.49,10.15,6.79-1.2,11.34-7.7,10.15-14.49h0c-1.07-6.06-6.36-10.34-12.31-10.34Z"/>
      </g>
      <circle class="cls-1" cx="420.94" cy="828.88" r="13.01"/>
      <circle class="cls-1" cx="350.11" cy="822.68" r="13.01"/>
      <circle class="cls-1" cx="281.42" cy="804.28" r="13.01"/>
      <circle class="cls-1" cx="216.98" cy="774.23" r="13.01"/>
      <circle class="cls-1" cx="158.73" cy="733.44" r="13.01"/>
      <circle class="cls-1" cx="108.45" cy="683.16" r="13.01"/>
      <circle class="cls-1" cx="67.66" cy="624.91" r="13.01"/>
      <circle class="cls-1" cx="37.61" cy="560.47" r="13.01"/>
      <circle class="cls-1" cx="19.21" cy="491.78" r="13.01"/>
      <circle class="cls-1" cx="13.01" cy="420.94" r="13.01"/>
      <circle class="cls-1" cx="19.21" cy="350.11" r="13.01"/>
      <circle class="cls-1" cx="37.61" cy="281.42" r="13.01"/>
      <circle class="cls-1" cx="67.66" cy="216.98" r="13.01"/>
      <circle class="cls-1" cx="108.45" cy="158.73" r="13.01"/>
      <circle class="cls-1" cx="158.73" cy="108.45" r="13.01"/>
      <circle class="cls-1" cx="216.98" cy="67.66" r="13.01"/>
      <circle class="cls-1" cx="281.42" cy="37.61" r="13.01"/>
      <circle class="cls-1" cx="350.11" cy="19.21" r="13.01"/>
    </g>
  </g>
</svg>