<?xml version="1.0" encoding="UTF-8"?>
<svg class="patternfilter" id="_图层_2" data-name="图层 2" xmlns="http://www.w3.org/2000/svg" viewBox="0 0 795.77 844.89">
  <g id="_5" data-name="5">
    <g>
      <circle class="cls--1" cx="397.88" cy="422.44" r="31.9"/>
      <circle class="cls--1" cx="360.2" cy="369.97" r="10.03"/>
      <circle class="cls--1" cx="333.6" cy="428.84" r="10.03"/>
      <circle class="cls--1" cx="371.28" cy="481.31" r="10.03"/>
      <circle class="cls--1" cx="435.56" cy="474.91" r="10.03"/>
      <circle class="cls--1" cx="462.16" cy="416.05" r="10.03"/>
      <circle class="cls--1" cx="424.48" cy="363.58" r="10.03"/>
      <path class="cls--1" d="M397.88,526.32c-57.28,0-103.88-46.6-103.88-103.88s46.6-103.88,103.88-103.88,103.88,46.6,103.88,103.88-46.6,103.88-103.88,103.88ZM397.88,321.56c-55.63,0-100.88,45.26-100.88,100.88s45.26,100.88,100.88,100.88,100.88-45.25,100.88-100.88-45.26-100.88-100.88-100.88Z"/>
      <circle class="cls--1" cx="385.44" cy="268.78" r="29.02"/>
      <circle class="cls--1" cx="258.58" cy="356.39" r="29.02"/>
      <circle class="cls--1" cx="271.03" cy="510.05" r="29.02"/>
      <circle class="cls--1" cx="410.33" cy="576.11" r="29.02"/>
      <circle class="cls--1" cx="537.18" cy="488.5" r="29.02"/>
      <circle class="cls--1" cx="524.74" cy="334.83" r="29.02"/>
      <circle class="cls--1" cx="287.65" cy="313.47" r="7.16"/>
      <circle class="cls--1" cx="243.39" cy="409.82" r="7.16"/>
      <circle class="cls--1" cx="248.39" cy="463.42" r="7.16"/>
      <circle class="cls--1" cx="309.71" cy="549.93" r="7.16"/>
      <g>
        <circle class="cls--1" cx="358.63" cy="572.4" r="7.16"/>
        <path class="cls--1" d="M358.64,580.06c-.39,0-.78-.03-1.18-.09-2.02-.31-3.8-1.39-5.01-3.04-2.5-3.41-1.76-8.21,1.64-10.71,1.65-1.21,3.67-1.71,5.69-1.4,2.02.31,3.8,1.39,5.01,3.04,1.21,1.65,1.71,3.67,1.4,5.69-.31,2.02-1.39,3.8-3.04,5.01-1.33.97-2.9,1.49-4.52,1.49ZM358.61,565.74c-1.41,0-2.77.44-3.92,1.29-2.96,2.17-3.6,6.35-1.43,9.31,1.05,1.43,2.6,2.37,4.36,2.64,1.76.27,3.52-.16,4.95-1.21h0c1.43-1.05,2.37-2.6,2.64-4.36s-.16-3.52-1.21-4.95-2.6-2.37-4.36-2.64c-.34-.05-.69-.08-1.02-.08Z"/>
      </g>
      <circle class="cls--1" cx="464.2" cy="562.55" r="7.16"/>
      <circle class="cls--1" cx="508.12" cy="531.41" r="7.16"/>
      <circle class="cls--1" cx="552.37" cy="435.06" r="7.16"/>
      <circle class="cls--1" cx="547.37" cy="381.46" r="7.16"/>
      <circle class="cls--1" cx="486.06" cy="294.96" r="7.16"/>
      <circle class="cls--1" cx="437.14" cy="272.49" r="7.16"/>
      <circle class="cls--1" cx="331.57" cy="282.34" r="7.16"/>
      <path class="cls--1" d="M524.42,211.39c-5.53-15.83-13.55-29.95-23.85-41.98-12.97-15.15-26.42-23.46-38.29-30.78-13.95-8.62-24.97-15.42-28.61-29.65-3.81-14.91,1.08-36.14,13.33-42.24,20.57-10.24,56.32,23.96,87.87,54.13,22.57,21.59,45.9,43.91,53.82,38.61,5.28-3.54,1.87-18.43-.63-29.3-16.51-72.04-91.92-107.14-100.47-110.9-21.39-9.42-44.59-14.9-68.96-16.28l.17-3c24.73,1.4,48.28,6.96,70,16.53,8.69,3.83,85.34,39.51,102.18,112.98,2.98,13.02,6.37,27.77-.63,32.46-1.3.87-2.79,1.28-4.45,1.28-11.06,0-29.97-18.08-53.11-40.21-30.83-29.49-65.79-62.91-84.46-53.61-10.83,5.39-15.21,25.29-11.76,38.82,3.33,13.06,13.9,19.58,27.28,27.84,11.46,7.07,25.71,15.88,38.99,31.39,10.54,12.31,18.75,26.76,24.4,42.94l-2.83.99Z"/>
      <path class="cls--1" d="M561.05,127.43c-4.47,0-8.11-3.64-8.11-8.11s3.64-8.11,8.11-8.11,8.11,3.64,8.11,8.11-3.64,8.11-8.11,8.11ZM561.05,114.21c-2.82,0-5.11,2.29-5.11,5.11s2.29,5.11,5.11,5.11,5.11-2.29,5.11-5.11-2.29-5.11-5.11-5.11Z"/>
      <path class="cls--1" d="M466.97,108.94c-4.47,0-8.11-3.64-8.11-8.11s3.64-8.11,8.11-8.11,8.11,3.64,8.11,8.11-3.64,8.11-8.11,8.11ZM466.97,95.73c-2.82,0-5.11,2.29-5.11,5.11s2.29,5.11,5.11,5.11,5.11-2.29,5.11-5.11-2.29-5.11-5.11-5.11Z"/>
      <path class="cls--1" d="M494.1,217.3c-4.47,0-8.11-3.64-8.11-8.11s3.64-8.11,8.11-8.11,8.11,3.64,8.11,8.11-3.64,8.11-8.11,8.11ZM494.1,204.08c-2.82,0-5.11,2.29-5.11,5.11s2.29,5.11,5.11,5.11,5.11-2.29,5.11-5.11-2.29-5.11-5.11-5.11Z"/>
      <path class="cls--1" d="M153.14,235.96c-2.85,0-5.78-.39-8.83-1.24-14.82-4.16-30.76-19.01-29.92-32.67,1.41-22.93,48.91-36.8,90.81-49.03,29.98-8.75,60.98-17.81,60.35-27.31-.42-6.34-15.03-10.83-25.69-14.11-70.64-21.72-138.74,26.04-146.28,31.56-18.85,13.81-35.2,31.17-48.58,51.58l-2.51-1.64c13.58-20.72,30.17-38.33,49.31-52.36,7.66-5.61,76.89-54.15,148.93-32,12.77,3.93,27.24,8.38,27.8,16.77.8,11.9-27.14,20.06-62.5,30.39-40.95,11.96-87.37,25.51-88.66,46.34-.74,12.08,14.3,25.82,27.74,29.59,12.98,3.64,23.91-2.25,37.75-9.7,11.85-6.38,26.61-14.33,46.68-18.08,15.93-2.97,32.55-2.86,49.39.34l-.56,2.95c-16.47-3.13-32.71-3.24-48.28-.34-19.61,3.66-33.53,11.16-45.81,17.77-11.32,6.1-20.78,11.19-31.15,11.19Z"/>
      <path class="cls--1" d="M216.94,137.68c-1.37,0-2.77-.35-4.04-1.08h0c-1.88-1.08-3.22-2.83-3.78-4.92s-.27-4.28.81-6.15c1.08-1.88,2.83-3.22,4.92-3.78,2.09-.56,4.27-.27,6.15.81,3.87,2.23,5.2,7.2,2.97,11.07-1.5,2.6-4.23,4.05-7.03,4.05ZM214.4,134c2.44,1.41,5.57.57,6.97-1.87,1.41-2.44.57-5.57-1.87-6.97-1.18-.68-2.56-.86-3.87-.51-1.32.35-2.42,1.2-3.1,2.38-.68,1.18-.86,2.56-.51,3.87s1.2,2.42,2.38,3.1h0Z"/>
      <path class="cls--1" d="M153.89,209.92c-1.4,0-2.79-.37-4.04-1.09-3.87-2.23-5.2-7.2-2.97-11.07,2.23-3.87,7.2-5.2,11.07-2.97,1.88,1.08,3.22,2.83,3.78,4.92.56,2.09.27,4.28-.81,6.15-1.08,1.88-2.83,3.22-4.92,3.78-.7.19-1.41.28-2.11.28ZM153.91,196.7c-1.77,0-3.49.92-4.43,2.55-1.41,2.44-.57,5.57,1.87,6.97h0c1.18.68,2.56.86,3.87.51,1.32-.35,2.42-1.2,3.1-2.38.68-1.18.86-2.56.51-3.87-.35-1.32-1.2-2.42-2.38-3.1-.8-.46-1.68-.68-2.54-.68Z"/>
      <path class="cls--1" d="M261.3,240.59c-1.37,0-2.77-.35-4.04-1.08-1.88-1.08-3.22-2.83-3.78-4.92-.56-2.09-.27-4.28.81-6.15,1.08-1.88,2.83-3.22,4.92-3.78,2.09-.56,4.27-.27,6.15.81,1.88,1.08,3.22,2.83,3.78,4.92s.27,4.28-.81,6.15c-1.5,2.6-4.23,4.05-7.03,4.05ZM261.32,227.38c-.44,0-.89.06-1.33.18-1.32.35-2.42,1.2-3.1,2.38-.68,1.18-.86,2.56-.51,3.87.35,1.32,1.2,2.42,2.38,3.1h0c2.44,1.41,5.57.57,6.97-1.87.68-1.18.86-2.56.51-3.87-.35-1.32-1.2-2.42-2.38-3.1-.79-.45-1.66-.69-2.54-.69Z"/>
      <path class="cls--1" d="M21.58,615.55c-11.15-22.12-18.11-45.29-20.68-68.89-1.03-9.43-8.46-93.66,46.75-144.98,9.78-9.09,20.88-19.4,28.43-15.69,10.71,5.26,3.8,33.53-4.94,69.32-10.12,41.45-21.59,88.42-4.2,99.95,10.09,6.68,29.51.53,39.5-9.22,9.64-9.42,10.01-21.83,10.47-37.54.4-13.46.89-30.21,7.68-49.46,5.39-15.28,13.8-29.62,24.99-42.6l2.27,1.96c-10.95,12.7-19.17,26.71-24.43,41.64-6.63,18.81-7.1,34.61-7.51,48.55-.49,16.39-.87,29.34-11.37,39.6-11.01,10.75-31.85,17.14-43.25,9.58-19.15-12.69-7.41-60.75,2.94-103.16,7.41-30.34,15.07-61.71,6.53-65.91-5.7-2.8-16.89,7.6-25.06,15.19C-4.45,454.2,2.86,537.05,3.88,546.34c2.53,23.23,9.39,46.07,20.38,67.86l-2.68,1.35Z"/>
      <path class="cls--1" d="M53.8,440.8c-2.8,0-5.53-1.45-7.03-4.05-2.23-3.87-.9-8.84,2.97-11.07,1.88-1.08,4.06-1.37,6.15-.81,2.09.56,3.84,1.9,4.92,3.78,2.23,3.87.9,8.84-2.97,11.07h0c-1.27.74-2.67,1.08-4.04,1.08ZM53.78,427.59c-.87,0-1.74.22-2.54.68-2.44,1.41-3.28,4.54-1.87,6.97,1.41,2.44,4.54,3.28,6.97,1.87h0c2.44-1.41,3.28-4.54,1.87-6.97-.94-1.64-2.66-2.55-4.43-2.55Z"/>
      <path class="cls--1" d="M84.83,531.52c-2.8,0-5.53-1.45-7.03-4.05-2.23-3.87-.9-8.84,2.97-11.07,1.88-1.08,4.06-1.37,6.15-.81,2.09.56,3.84,1.9,4.92,3.78s1.37,4.06.81,6.15c-.56,2.09-1.9,3.84-3.78,4.92-1.27.74-2.67,1.08-4.04,1.08ZM84.81,518.31c-.88,0-1.76.23-2.54.69-2.44,1.41-3.28,4.54-1.87,6.97,1.41,2.44,4.54,3.27,6.97,1.87h0c1.18-.68,2.03-1.78,2.38-3.1.35-1.32.17-2.69-.51-3.87-.68-1.18-1.78-2.03-3.1-2.38-.44-.12-.89-.18-1.33-.18Z"/>
      <path class="cls--1" d="M165.11,453.85c-.7,0-1.41-.09-2.11-.28-2.09-.56-3.84-1.9-4.92-3.78-2.23-3.87-.9-8.84,2.97-11.07,1.87-1.08,4.06-1.37,6.15-.81,2.09.56,3.84,1.9,4.92,3.78,2.23,3.87.9,8.84-2.97,11.07-1.25.72-2.63,1.09-4.04,1.09ZM165.08,440.64c-.87,0-1.74.22-2.54.68-2.44,1.41-3.28,4.54-1.87,6.97,1.41,2.44,4.54,3.28,6.97,1.87,2.44-1.41,3.28-4.54,1.87-6.97-.94-1.64-2.66-2.55-4.43-2.55Z"/>
      <path class="cls--1" d="M376.96,844.89c-24.73-1.4-48.28-6.96-70-16.53-8.69-3.83-85.35-39.51-102.18-112.98-2.98-13.02-6.37-27.77.63-32.46,9.91-6.64,30.94,13.47,57.56,38.93,30.83,29.49,65.77,62.91,84.46,53.61,10.83-5.39,15.21-25.29,11.76-38.82-3.33-13.05-13.9-19.58-27.28-27.84-11.46-7.08-25.71-15.88-38.99-31.39-10.54-12.31-18.75-26.76-24.4-42.94l2.83-.99c5.52,15.83,13.55,29.95,23.85,41.98,12.98,15.15,26.42,23.46,38.29,30.78,13.95,8.62,24.97,15.42,28.61,29.65,3.81,14.91-1.08,36.14-13.33,42.24-20.56,10.24-56.32-23.96-87.87-54.13-22.57-21.59-45.92-43.91-53.82-38.61-5.28,3.54-1.86,18.43.63,29.3,16.51,72.04,91.92,107.14,100.47,110.9,21.39,9.42,44.59,14.9,68.96,16.28l-.17,3Z"/>
      <path class="cls--1" d="M234.72,733.67c-4.47,0-8.11-3.64-8.11-8.11s3.64-8.11,8.11-8.11,8.11,3.64,8.11,8.11-3.64,8.11-8.11,8.11ZM234.72,720.46c-2.81,0-5.11,2.29-5.11,5.11s2.29,5.11,5.11,5.11,5.11-2.29,5.11-5.11-2.29-5.11-5.11-5.11Z"/>
      <path class="cls--1" d="M328.8,752.16c-4.47,0-8.11-3.64-8.11-8.11s3.64-8.11,8.11-8.11,8.11,3.64,8.11,8.11-3.64,8.11-8.11,8.11ZM328.8,738.95c-2.81,0-5.11,2.29-5.11,5.11s2.29,5.11,5.11,5.11,5.11-2.29,5.11-5.11-2.29-5.11-5.11-5.11Z"/>
      <path class="cls--1" d="M301.66,643.8c-4.47,0-8.11-3.64-8.11-8.11s3.64-8.11,8.11-8.11,8.11,3.64,8.11,8.11-3.64,8.11-8.11,8.11ZM301.66,630.59c-2.81,0-5.11,2.29-5.11,5.11s2.29,5.11,5.11,5.11,5.11-2.29,5.11-5.11-2.29-5.11-5.11-5.11Z"/>
      <path class="cls--1" d="M594.1,741.9c-12.69,0-25.83-1.68-39.08-5.75-12.77-3.93-27.24-8.38-27.8-16.77-.79-11.9,27.14-20.06,62.5-30.38,40.95-11.96,87.37-25.51,88.66-46.34.74-12.08-14.3-25.82-27.74-29.59-12.97-3.64-23.91,2.25-37.75,9.7-11.85,6.38-26.61,14.33-46.68,18.08-15.93,2.97-32.55,2.86-49.39-.34l.56-2.95c16.47,3.13,32.71,3.24,48.28.34,19.61-3.66,33.53-11.16,45.81-17.77,14.44-7.77,25.84-13.92,39.98-9.95,14.82,4.16,30.76,19.01,29.92,32.67-1.41,22.93-48.91,36.8-90.81,49.03-29.98,8.75-60.98,17.81-60.35,27.31.42,6.34,15.02,10.83,25.69,14.11,70.64,21.72,138.75-26.04,146.28-31.56,18.85-13.81,35.2-31.16,48.58-51.58l2.51,1.64c-13.58,20.72-30.17,38.33-49.31,52.36-6.25,4.58-53.52,37.76-109.85,37.76Z"/>
      <path class="cls--1" d="M578.8,723.41c-1.37,0-2.76-.35-4.04-1.08-1.88-1.08-3.22-2.83-3.78-4.92-.56-2.09-.27-4.28.81-6.15,1.08-1.88,2.83-3.22,4.92-3.78,2.09-.56,4.27-.27,6.15.81,1.88,1.08,3.22,2.83,3.78,4.92.56,2.09.27,4.28-.81,6.15-1.5,2.6-4.23,4.05-7.03,4.05ZM578.82,710.2c-.44,0-.89.06-1.33.18-1.32.35-2.42,1.2-3.1,2.38-1.41,2.44-.57,5.57,1.87,6.97,2.44,1.41,5.57.57,6.97-1.87.68-1.18.86-2.56.51-3.87-.35-1.32-1.2-2.42-2.38-3.1h0c-.79-.45-1.66-.69-2.54-.69Z"/>
      <path class="cls--1" d="M641.85,651.19c-1.41,0-2.79-.37-4.04-1.09-1.88-1.08-3.22-2.83-3.78-4.92-.56-2.09-.27-4.28.81-6.15,1.08-1.88,2.83-3.22,4.92-3.78,2.09-.56,4.28-.27,6.15.81h0c3.87,2.23,5.2,7.2,2.97,11.07-1.08,1.88-2.83,3.22-4.92,3.78-.7.19-1.41.28-2.11.28ZM641.87,637.97c-.44,0-.89.06-1.33.18-1.32.35-2.42,1.2-3.1,2.38-.68,1.18-.86,2.56-.51,3.87.35,1.32,1.2,2.42,2.38,3.1,1.18.68,2.56.87,3.88.51,1.32-.35,2.42-1.2,3.1-2.38,1.41-2.44.57-5.57-1.87-6.97-.79-.45-1.66-.69-2.54-.69Z"/>
      <path class="cls--1" d="M534.44,620.5c-1.38,0-2.77-.35-4.04-1.08-1.88-1.08-3.22-2.83-3.78-4.92-.56-2.09-.27-4.28.81-6.15,2.24-3.87,7.2-5.2,11.07-2.97s5.2,7.2,2.97,11.07c-1.5,2.6-4.23,4.05-7.03,4.05ZM534.47,607.29c-1.77,0-3.49.92-4.43,2.55-1.41,2.44-.57,5.57,1.87,6.97,2.44,1.41,5.57.57,6.97-1.87,1.41-2.44.57-5.57-1.87-6.97-.8-.46-1.68-.68-2.54-.68Z"/>
      <path class="cls--1" d="M723.16,459.67c-1.22,0-2.37-.24-3.46-.78-10.71-5.26-3.8-33.53,4.94-69.32,10.12-41.45,21.59-88.42,4.2-99.95-10.09-6.68-29.51-.53-39.5,9.22-9.64,9.42-10.01,21.83-10.47,37.54-.4,13.46-.89,30.21-7.68,49.46-5.39,15.29-13.8,29.62-24.99,42.6l-2.27-1.96c10.94-12.7,19.16-26.71,24.43-41.64,6.63-18.81,7.1-34.61,7.51-48.55.49-16.39.87-29.34,11.37-39.6,11.01-10.75,31.85-17.13,43.25-9.58,19.15,12.69,7.41,60.75-2.94,103.16-7.41,30.34-15.07,61.71-6.53,65.91,5.7,2.79,16.89-7.6,25.06-15.19,54.13-50.32,46.82-133.18,45.81-142.46-2.53-23.23-9.39-46.06-20.38-67.86l2.68-1.35c11.15,22.12,18.11,45.29,20.69,68.89,1.03,9.44,8.45,93.67-46.75,144.98-8.38,7.79-17.71,16.46-24.97,16.46Z"/>
      <path class="cls--1" d="M741.99,420.29c-2.8,0-5.53-1.45-7.03-4.05-1.08-1.88-1.37-4.06-.81-6.15s1.9-3.84,3.78-4.92c1.88-1.08,4.06-1.37,6.15-.81,2.09.56,3.84,1.9,4.92,3.78,1.08,1.88,1.37,4.06.81,6.15s-1.9,3.84-3.78,4.92c-1.27.73-2.67,1.08-4.04,1.08ZM741.97,407.08c-.88,0-1.76.23-2.54.69-2.44,1.41-3.28,4.54-1.87,6.97,1.41,2.44,4.54,3.28,6.97,1.87,2.44-1.41,3.28-4.54,1.87-6.97-.68-1.18-1.78-2.03-3.1-2.38-.44-.12-.89-.18-1.33-.18Z"/>
      <path class="cls--1" d="M710.96,329.57c-.7,0-1.41-.09-2.11-.28-2.09-.56-3.84-1.9-4.92-3.78-1.08-1.88-1.37-4.06-.81-6.15s1.9-3.84,3.78-4.92c1.88-1.08,4.06-1.37,6.15-.81,2.09.56,3.84,1.9,4.92,3.78,2.23,3.87.9,8.84-2.97,11.07-1.25.72-2.63,1.09-4.04,1.09ZM710.94,316.36c-.87,0-1.74.22-2.54.68h0c-1.18.68-2.03,1.78-2.38,3.1-.35,1.32-.17,2.69.51,3.87.68,1.18,1.78,2.03,3.1,2.38,1.31.35,2.69.17,3.87-.51,2.44-1.41,3.28-4.54,1.87-6.97-.95-1.64-2.66-2.55-4.43-2.55Z"/>
      <path class="cls--1" d="M630.69,407.25c-.7,0-1.41-.09-2.11-.28-2.09-.56-3.84-1.9-4.92-3.78-1.08-1.88-1.37-4.06-.81-6.15s1.9-3.84,3.78-4.92h0c3.87-2.23,8.84-.9,11.07,2.97,2.23,3.87.9,8.84-2.97,11.07-1.25.72-2.63,1.09-4.04,1.09ZM628.12,394.72h0c-2.44,1.41-3.28,4.54-1.87,6.97.68,1.18,1.78,2.03,3.1,2.38,1.31.35,2.69.17,3.87-.51,2.44-1.41,3.28-4.54,1.87-6.97-1.41-2.44-4.54-3.27-6.97-1.87Z"/>
    </g>
  </g>
</svg>