<?xml version="1.0" encoding="UTF-8"?>
<svg class="patternfilter" id="_图层_2" data-name="图层 2" xmlns="http://www.w3.org/2000/svg" viewBox="0 0 841.89 841.89">
  <g id="_6" data-name="6">
    <g>
      <path class="cls--4" d="M421.28,444.52c-13,0-23.57-10.58-23.57-23.57s10.57-23.57,23.57-23.57,23.57,10.57,23.57,23.57-10.58,23.57-23.57,23.57ZM421.28,398.37c-12.45,0-22.57,10.13-22.57,22.57s10.13,22.57,22.57,22.57,22.57-10.13,22.57-22.57-10.13-22.57-22.57-22.57Z"/>
      <g>
        <circle class="cls--4" cx="420.94" cy="420.94" r="4.09"/>
        <path class="cls--4" d="M420.94,425.54c-2.53,0-4.59-2.06-4.59-4.59s2.06-4.59,4.59-4.59,4.59,2.06,4.59,4.59-2.06,4.59-4.59,4.59ZM420.94,417.35c-1.98,0-3.59,1.61-3.59,3.59s1.61,3.59,3.59,3.59,3.59-1.61,3.59-3.59-1.61-3.59-3.59-3.59Z"/>
      </g>
      <path class="cls--4" d="M375.14,514.69c-13,0-23.57-10.58-23.57-23.57s10.57-23.57,23.57-23.57,23.57,10.58,23.57,23.57-10.57,23.57-23.57,23.57ZM375.14,468.54c-12.45,0-22.57,10.13-22.57,22.57s10.13,22.57,22.57,22.57,22.57-10.13,22.57-22.57-10.13-22.57-22.57-22.57Z"/>
      <g>
        <circle class="cls--4" cx="374.8" cy="491.11" r="4.09"/>
        <path class="cls--4" d="M374.8,495.71c-2.53,0-4.59-2.06-4.59-4.59s2.06-4.59,4.59-4.59,4.59,2.06,4.59,4.59-2.06,4.59-4.59,4.59ZM374.8,487.52c-1.98,0-3.59,1.61-3.59,3.59s1.61,3.59,3.59,3.59,3.59-1.61,3.59-3.59-1.61-3.59-3.59-3.59Z"/>
      </g>
      <path class="cls--4" d="M324.17,567.35c-13,0-23.57-10.58-23.57-23.57s10.57-23.57,23.57-23.57,23.57,10.58,23.57,23.57-10.57,23.57-23.57,23.57ZM324.17,521.21c-12.45,0-22.57,10.13-22.57,22.57s10.13,22.57,22.57,22.57,22.57-10.13,22.57-22.57-10.13-22.57-22.57-22.57Z"/>
      <g>
        <circle class="cls--4" cx="323.83" cy="543.78" r="4.09"/>
        <path class="cls--4" d="M323.83,548.37c-2.53,0-4.59-2.06-4.59-4.59s2.06-4.59,4.59-4.59,4.59,2.06,4.59,4.59-2.06,4.59-4.59,4.59ZM323.83,540.18c-1.98,0-3.59,1.61-3.59,3.59s1.61,3.59,3.59,3.59,3.59-1.61,3.59-3.59-1.61-3.59-3.59-3.59Z"/>
      </g>
      <path class="cls--4" d="M245.03,537.76c-13,0-23.57-10.58-23.57-23.57s10.57-23.57,23.57-23.57,23.57,10.58,23.57,23.57-10.57,23.57-23.57,23.57ZM245.03,491.61c-12.45,0-22.57,10.13-22.57,22.57s10.13,22.57,22.57,22.57,22.57-10.13,22.57-22.57-10.13-22.57-22.57-22.57Z"/>
      <g>
        <circle class="cls--4" cx="244.69" cy="514.19" r="4.09"/>
        <path class="cls--4" d="M244.69,518.78c-2.53,0-4.59-2.06-4.59-4.59s2.06-4.59,4.59-4.59,4.59,2.06,4.59,4.59-2.06,4.59-4.59,4.59ZM244.69,510.59c-1.98,0-3.59,1.61-3.59,3.59s1.61,3.59,3.59,3.59,3.59-1.61,3.59-3.59-1.61-3.59-3.59-3.59Z"/>
      </g>
      <path class="cls--4" d="M160.89,504c-13,0-23.57-10.58-23.57-23.57s10.57-23.57,23.57-23.57,23.57,10.58,23.57,23.57-10.57,23.57-23.57,23.57ZM160.89,457.85c-12.45,0-22.57,10.13-22.57,22.57s10.13,22.57,22.57,22.57,22.57-10.13,22.57-22.57-10.13-22.57-22.57-22.57Z"/>
      <g>
        <circle class="cls--4" cx="160.55" cy="480.43" r="4.09"/>
        <path class="cls--4" d="M160.55,485.02c-2.53,0-4.59-2.06-4.59-4.59s2.06-4.59,4.59-4.59,4.59,2.06,4.59,4.59-2.06,4.59-4.59,4.59ZM160.55,476.83c-1.98,0-3.59,1.61-3.59,3.59s1.61,3.59,3.59,3.59,3.59-1.61,3.59-3.59-1.61-3.59-3.59-3.59Z"/>
      </g>
      <path class="cls--4" d="M111.69,553.6c-7.67,0-13.91-6.24-13.91-13.92s6.24-13.91,13.91-13.91,13.91,6.24,13.91,13.91-6.24,13.92-13.91,13.92ZM111.69,526.77c-7.12,0-12.91,5.79-12.91,12.91s5.79,12.92,12.91,12.92,12.91-5.79,12.91-12.92-5.79-12.91-12.91-12.91Z"/>
      <g>
        <circle class="cls--4" cx="111.49" cy="539.68" r="2.38"/>
        <path class="cls--4" d="M111.49,542.56c-1.59,0-2.88-1.29-2.88-2.88s1.29-2.88,2.88-2.88,2.88,1.29,2.88,2.88-1.29,2.88-2.88,2.88ZM111.49,537.8c-1.04,0-1.88.84-1.88,1.88s.84,1.88,1.88,1.88,1.88-.84,1.88-1.88-.84-1.88-1.88-1.88Z"/>
      </g>
      <path class="cls--4" d="M34.62,633.76c-12.41,0-22.5-10.09-22.5-22.5s10.09-22.5,22.5-22.5,22.5,10.09,22.5,22.5-10.09,22.5-22.5,22.5ZM34.62,589.76c-11.85,0-21.5,9.64-21.5,21.5s9.64,21.5,21.5,21.5,21.5-9.64,21.5-21.5-9.64-21.5-21.5-21.5Z"/>
      <g>
        <circle class="cls--4" cx="34.3" cy="611.26" r="3.9"/>
        <path class="cls--4" d="M34.3,615.66c-2.43,0-4.4-1.97-4.4-4.4s1.98-4.4,4.4-4.4,4.4,1.97,4.4,4.4-1.98,4.4-4.4,4.4ZM34.3,607.86c-1.88,0-3.4,1.53-3.4,3.4s1.53,3.4,3.4,3.4,3.4-1.53,3.4-3.4-1.53-3.4-3.4-3.4Z"/>
      </g>
      <path class="cls--4" d="M491.11,490.33c-13,0-23.57-10.58-23.57-23.57s10.58-23.57,23.57-23.57,23.57,10.58,23.57,23.57-10.58,23.57-23.57,23.57ZM491.11,444.18c-12.45,0-22.57,10.13-22.57,22.57s10.13,22.57,22.57,22.57,22.57-10.13,22.57-22.57-10.13-22.57-22.57-22.57Z"/>
      <g>
        <circle class="cls--4" cx="491.11" cy="467.09" r="4.09"/>
        <path class="cls--4" d="M491.11,471.68c-2.53,0-4.59-2.06-4.59-4.59s2.06-4.59,4.59-4.59,4.59,2.06,4.59,4.59-2.06,4.59-4.59,4.59ZM491.11,463.5c-1.98,0-3.59,1.61-3.59,3.59s1.61,3.59,3.59,3.59,3.59-1.61,3.59-3.59-1.61-3.59-3.59-3.59Z"/>
      </g>
      <path class="cls--4" d="M543.78,541.29c-13,0-23.57-10.58-23.57-23.57s10.58-23.57,23.57-23.57,23.57,10.58,23.57,23.57-10.57,23.57-23.57,23.57ZM543.78,495.14c-12.45,0-22.57,10.13-22.57,22.57s10.13,22.57,22.57,22.57,22.57-10.13,22.57-22.57-10.13-22.57-22.57-22.57Z"/>
      <g>
        <circle class="cls--4" cx="543.78" cy="518.06" r="4.09"/>
        <path class="cls--4" d="M543.78,522.65c-2.53,0-4.59-2.06-4.59-4.59s2.06-4.59,4.59-4.59,4.59,2.06,4.59,4.59-2.06,4.59-4.59,4.59ZM543.78,514.46c-1.98,0-3.59,1.61-3.59,3.59s1.61,3.59,3.59,3.59,3.59-1.61,3.59-3.59-1.61-3.59-3.59-3.59Z"/>
      </g>
      <path class="cls--4" d="M514.19,620.43c-13,0-23.57-10.58-23.57-23.57s10.58-23.57,23.57-23.57,23.57,10.58,23.57,23.57-10.58,23.57-23.57,23.57ZM514.19,574.29c-12.45,0-22.57,10.13-22.57,22.57s10.13,22.57,22.57,22.57,22.57-10.13,22.57-22.57-10.13-22.57-22.57-22.57Z"/>
      <g>
        <circle class="cls--4" cx="514.19" cy="597.2" r="4.09"/>
        <path class="cls--4" d="M514.19,601.79c-2.53,0-4.59-2.06-4.59-4.59s2.06-4.59,4.59-4.59,4.59,2.06,4.59,4.59-2.06,4.59-4.59,4.59ZM514.19,593.6c-1.98,0-3.59,1.61-3.59,3.59s1.61,3.59,3.59,3.59,3.59-1.61,3.59-3.59-1.61-3.59-3.59-3.59Z"/>
      </g>
      <path class="cls--4" d="M480.43,704.57c-13,0-23.57-10.58-23.57-23.57s10.58-23.57,23.57-23.57,23.57,10.58,23.57,23.57-10.58,23.57-23.57,23.57ZM480.43,658.43c-12.45,0-22.57,10.13-22.57,22.57s10.13,22.57,22.57,22.57,22.57-10.13,22.57-22.57-10.13-22.57-22.57-22.57Z"/>
      <g>
        <circle class="cls--4" cx="480.43" cy="681.34" r="4.09"/>
        <path class="cls--4" d="M480.43,685.93c-2.53,0-4.59-2.06-4.59-4.59s2.06-4.59,4.59-4.59,4.59,2.06,4.59,4.59-2.06,4.59-4.59,4.59ZM480.43,677.74c-1.98,0-3.59,1.61-3.59,3.59s1.61,3.59,3.59,3.59,3.59-1.61,3.59-3.59-1.61-3.59-3.59-3.59Z"/>
      </g>
      <path class="cls--4" d="M539.68,744.11c-7.67,0-13.91-6.24-13.91-13.91s6.24-13.91,13.91-13.91,13.91,6.24,13.91,13.91-6.24,13.91-13.91,13.91ZM539.68,717.29c-7.12,0-12.91,5.79-12.91,12.91s5.79,12.91,12.91,12.91,12.91-5.79,12.91-12.91-5.79-12.91-12.91-12.91Z"/>
      <g>
        <circle class="cls--4" cx="539.68" cy="730.4" r="2.38"/>
        <path class="cls--4" d="M539.68,733.28c-1.59,0-2.88-1.29-2.88-2.88s1.29-2.88,2.88-2.88,2.88,1.29,2.88,2.88-1.29,2.88-2.88,2.88ZM539.68,728.52c-1.04,0-1.88.84-1.88,1.88s.84,1.88,1.88,1.88,1.88-.84,1.88-1.88-.84-1.88-1.88-1.88Z"/>
      </g>
      <path class="cls--4" d="M611.26,829.76c-12.41,0-22.5-10.09-22.5-22.5s10.09-22.5,22.5-22.5,22.5,10.09,22.5,22.5-10.09,22.5-22.5,22.5ZM611.26,785.77c-11.85,0-21.5,9.64-21.5,21.5s9.64,21.5,21.5,21.5,21.5-9.64,21.5-21.5-9.64-21.5-21.5-21.5Z"/>
      <g>
        <circle class="cls--4" cx="611.26" cy="807.59" r="3.9"/>
        <path class="cls--4" d="M611.26,811.99c-2.43,0-4.4-1.98-4.4-4.4s1.97-4.4,4.4-4.4,4.4,1.97,4.4,4.4-1.97,4.4-4.4,4.4ZM611.26,804.19c-1.88,0-3.4,1.53-3.4,3.4s1.53,3.4,3.4,3.4,3.4-1.53,3.4-3.4-1.53-3.4-3.4-3.4Z"/>
      </g>
      <path class="cls--4" d="M466.75,374.35c-13,0-23.57-10.57-23.57-23.57s10.58-23.57,23.57-23.57,23.57,10.57,23.57,23.57-10.58,23.57-23.57,23.57ZM466.75,328.2c-12.45,0-22.57,10.13-22.57,22.57s10.13,22.57,22.57,22.57,22.57-10.13,22.57-22.57-10.13-22.57-22.57-22.57Z"/>
      <g>
        <circle class="cls--4" cx="467.09" cy="350.78" r="4.09"/>
        <path class="cls--4" d="M467.09,355.37c-2.53,0-4.59-2.06-4.59-4.59s2.06-4.59,4.59-4.59,4.59,2.06,4.59,4.59-2.06,4.59-4.59,4.59ZM467.09,347.18c-1.98,0-3.59,1.61-3.59,3.59s1.61,3.59,3.59,3.59,3.59-1.61,3.59-3.59-1.61-3.59-3.59-3.59Z"/>
      </g>
      <path class="cls--4" d="M517.72,321.69c-13,0-23.57-10.57-23.57-23.57s10.58-23.57,23.57-23.57,23.57,10.57,23.57,23.57-10.58,23.57-23.57,23.57ZM517.72,275.54c-12.45,0-22.57,10.13-22.57,22.57s10.13,22.57,22.57,22.57,22.57-10.13,22.57-22.57-10.13-22.57-22.57-22.57Z"/>
      <g>
        <circle class="cls--4" cx="518.06" cy="298.11" r="4.09"/>
        <path class="cls--4" d="M518.06,302.71c-2.53,0-4.59-2.06-4.59-4.59s2.06-4.59,4.59-4.59,4.59,2.06,4.59,4.59-2.06,4.59-4.59,4.59ZM518.06,294.52c-1.98,0-3.59,1.61-3.59,3.59s1.61,3.59,3.59,3.59,3.59-1.61,3.59-3.59-1.61-3.59-3.59-3.59Z"/>
      </g>
      <path class="cls--4" d="M596.86,351.28c-13,0-23.57-10.57-23.57-23.57s10.58-23.57,23.57-23.57,23.57,10.57,23.57,23.57-10.58,23.57-23.57,23.57ZM596.86,305.13c-12.45,0-22.57,10.13-22.57,22.57s10.13,22.57,22.57,22.57,22.57-10.13,22.57-22.57-10.13-22.57-22.57-22.57Z"/>
      <g>
        <circle class="cls--4" cx="597.2" cy="327.7" r="4.09"/>
        <path class="cls--4" d="M597.2,332.3c-2.53,0-4.59-2.06-4.59-4.59s2.06-4.59,4.59-4.59,4.59,2.06,4.59,4.59-2.06,4.59-4.59,4.59ZM597.2,324.11c-1.98,0-3.59,1.61-3.59,3.59s1.61,3.59,3.59,3.59,3.59-1.61,3.59-3.59-1.61-3.59-3.59-3.59Z"/>
      </g>
      <path class="cls--4" d="M681,385.04c-13,0-23.57-10.57-23.57-23.57s10.58-23.57,23.57-23.57,23.57,10.57,23.57,23.57-10.58,23.57-23.57,23.57ZM681,338.89c-12.45,0-22.57,10.13-22.57,22.57s10.13,22.57,22.57,22.57,22.57-10.13,22.57-22.57-10.13-22.57-22.57-22.57Z"/>
      <g>
        <circle class="cls--4" cx="681.34" cy="361.46" r="4.09"/>
        <path class="cls--4" d="M681.34,366.06c-2.53,0-4.59-2.06-4.59-4.59s2.06-4.59,4.59-4.59,4.59,2.06,4.59,4.59-2.06,4.59-4.59,4.59ZM681.34,357.87c-1.98,0-3.59,1.61-3.59,3.59s1.61,3.59,3.59,3.59,3.59-1.61,3.59-3.59-1.61-3.59-3.59-3.59Z"/>
      </g>
      <path class="cls--4" d="M730.2,316.12c-7.67,0-13.92-6.24-13.92-13.91s6.24-13.91,13.92-13.91,13.91,6.24,13.91,13.91-6.24,13.91-13.91,13.91ZM730.2,289.29c-7.12,0-12.92,5.79-12.92,12.91s5.79,12.91,12.92,12.91,12.91-5.79,12.91-12.91-5.79-12.91-12.91-12.91Z"/>
      <g>
        <circle class="cls--4" cx="730.4" cy="302.2" r="2.38"/>
        <path class="cls--4" d="M730.4,305.08c-1.59,0-2.88-1.29-2.88-2.88s1.29-2.88,2.88-2.88,2.88,1.29,2.88,2.88-1.29,2.88-2.88,2.88ZM730.4,300.33c-1.04,0-1.88.84-1.88,1.88s.84,1.88,1.88,1.88,1.88-.84,1.88-1.88-.84-1.88-1.88-1.88Z"/>
      </g>
      <path class="cls--4" d="M807.27,253.13c-12.41,0-22.5-10.09-22.5-22.5s10.09-22.5,22.5-22.5,22.5,10.09,22.5,22.5-10.09,22.5-22.5,22.5ZM807.27,209.13c-11.85,0-21.5,9.64-21.5,21.5s9.64,21.5,21.5,21.5,21.5-9.64,21.5-21.5-9.64-21.5-21.5-21.5Z"/>
      <g>
        <circle class="cls--4" cx="807.59" cy="230.63" r="3.9"/>
        <path class="cls--4" d="M807.59,235.03c-2.43,0-4.4-1.98-4.4-4.4s1.97-4.4,4.4-4.4,4.4,1.98,4.4,4.4-1.97,4.4-4.4,4.4ZM807.59,227.23c-1.88,0-3.4,1.53-3.4,3.4s1.53,3.4,3.4,3.4,3.4-1.53,3.4-3.4-1.53-3.4-3.4-3.4Z"/>
      </g>
      <path class="cls--4" d="M350.78,398.71c-13,0-23.57-10.57-23.57-23.57s10.57-23.57,23.57-23.57,23.57,10.57,23.57,23.57-10.57,23.57-23.57,23.57ZM350.78,352.56c-12.45,0-22.57,10.13-22.57,22.57s10.13,22.57,22.57,22.57,22.57-10.13,22.57-22.57-10.13-22.57-22.57-22.57Z"/>
      <g>
        <circle class="cls--4" cx="350.78" cy="374.8" r="4.09"/>
        <path class="cls--4" d="M350.78,379.39c-2.53,0-4.59-2.06-4.59-4.59s2.06-4.59,4.59-4.59,4.59,2.06,4.59,4.59-2.06,4.59-4.59,4.59ZM350.78,371.21c-1.98,0-3.59,1.61-3.59,3.59s1.61,3.59,3.59,3.59,3.59-1.61,3.59-3.59-1.61-3.59-3.59-3.59Z"/>
      </g>
      <path class="cls--4" d="M298.11,347.75c-13,0-23.57-10.57-23.57-23.57s10.57-23.57,23.57-23.57,23.57,10.57,23.57,23.57-10.57,23.57-23.57,23.57ZM298.11,301.6c-12.45,0-22.57,10.13-22.57,22.57s10.13,22.57,22.57,22.57,22.57-10.13,22.57-22.57-10.13-22.57-22.57-22.57Z"/>
      <g>
        <circle class="cls--4" cx="298.11" cy="323.83" r="4.09"/>
        <path class="cls--4" d="M298.11,328.43c-2.53,0-4.59-2.06-4.59-4.59s2.06-4.59,4.59-4.59,4.59,2.06,4.59,4.59-2.06,4.59-4.59,4.59ZM298.11,320.24c-1.98,0-3.59,1.61-3.59,3.59s1.61,3.59,3.59,3.59,3.59-1.61,3.59-3.59-1.61-3.59-3.59-3.59Z"/>
      </g>
      <path class="cls--4" d="M327.7,268.6c-13,0-23.57-10.57-23.57-23.57s10.57-23.57,23.57-23.57,23.57,10.57,23.57,23.57-10.57,23.57-23.57,23.57ZM327.7,222.46c-12.45,0-22.57,10.13-22.57,22.57s10.13,22.57,22.57,22.57,22.57-10.13,22.57-22.57-10.13-22.57-22.57-22.57Z"/>
      <g>
        <circle class="cls--4" cx="327.7" cy="244.69" r="4.09"/>
        <path class="cls--4" d="M327.7,249.29c-2.53,0-4.59-2.06-4.59-4.59s2.06-4.59,4.59-4.59,4.59,2.06,4.59,4.59-2.06,4.59-4.59,4.59ZM327.7,241.1c-1.98,0-3.59,1.61-3.59,3.59s1.61,3.59,3.59,3.59,3.59-1.61,3.59-3.59-1.61-3.59-3.59-3.59Z"/>
      </g>
      <path class="cls--4" d="M361.46,184.46c-13,0-23.57-10.57-23.57-23.57s10.57-23.57,23.57-23.57,23.57,10.57,23.57,23.57-10.57,23.57-23.57,23.57ZM361.46,138.32c-12.45,0-22.57,10.13-22.57,22.57s10.13,22.57,22.57,22.57,22.57-10.13,22.57-22.57-10.13-22.57-22.57-22.57Z"/>
      <g>
        <circle class="cls--4" cx="361.46" cy="160.55" r="4.09"/>
        <path class="cls--4" d="M361.46,165.15c-2.53,0-4.59-2.06-4.59-4.59s2.06-4.59,4.59-4.59,4.59,2.06,4.59,4.59-2.06,4.59-4.59,4.59ZM361.46,156.96c-1.98,0-3.59,1.61-3.59,3.59s1.61,3.59,3.59,3.59,3.59-1.61,3.59-3.59-1.61-3.59-3.59-3.59Z"/>
      </g>
      <path class="cls--4" d="M302.2,125.6c-7.67,0-13.91-6.24-13.91-13.91s6.24-13.91,13.91-13.91,13.91,6.24,13.91,13.91-6.24,13.91-13.91,13.91ZM302.2,98.78c-7.12,0-12.91,5.79-12.91,12.91s5.79,12.91,12.91,12.91,12.91-5.79,12.91-12.91-5.79-12.91-12.91-12.91Z"/>
      <g>
        <circle class="cls--4" cx="302.2" cy="111.49" r="2.38"/>
        <path class="cls--4" d="M302.2,114.37c-1.59,0-2.88-1.29-2.88-2.88s1.29-2.88,2.88-2.88,2.88,1.29,2.88,2.88-1.29,2.88-2.88,2.88ZM302.2,109.61c-1.04,0-1.88.84-1.88,1.88s.84,1.88,1.88,1.88,1.88-.84,1.88-1.88-.84-1.88-1.88-1.88Z"/>
      </g>
      <path class="cls--4" d="M230.63,57.12c-12.41,0-22.5-10.09-22.5-22.5s10.09-22.5,22.5-22.5,22.5,10.09,22.5,22.5-10.09,22.5-22.5,22.5ZM230.63,13.13c-11.85,0-21.5,9.64-21.5,21.5s9.64,21.5,21.5,21.5,21.5-9.64,21.5-21.5-9.64-21.5-21.5-21.5Z"/>
      <g>
        <circle class="cls--4" cx="230.63" cy="34.3" r="3.9"/>
        <path class="cls--4" d="M230.63,38.7c-2.43,0-4.4-1.98-4.4-4.4s1.98-4.4,4.4-4.4,4.4,1.98,4.4,4.4-1.98,4.4-4.4,4.4ZM230.63,30.9c-1.88,0-3.4,1.53-3.4,3.4s1.53,3.4,3.4,3.4,3.4-1.53,3.4-3.4-1.53-3.4-3.4-3.4Z"/>
      </g>
      <ellipse class="cls--3" cx="107.31" cy="501.16" rx="20.26" ry="13.03"/>
      <g>
        <circle class="cls--4" cx="107.31" cy="501.16" r="4.62"/>
        <path class="cls--4" d="M107.31,506.28c-2.82,0-5.12-2.3-5.12-5.12s2.3-5.12,5.12-5.12,5.12,2.3,5.12,5.12-2.3,5.12-5.12,5.12ZM107.31,497.04c-2.27,0-4.12,1.85-4.12,4.12s1.85,4.12,4.12,4.12,4.12-1.85,4.12-4.12-1.85-4.12-4.12-4.12Z"/>
      </g>
      <ellipse class="cls--1" cx="164.29" cy="550.1" rx="20.26" ry="13.03"/>
      <g>
        <circle class="cls--4" cx="164.29" cy="550.1" r="4.62"/>
        <path class="cls--4" d="M164.29,555.22c-2.82,0-5.12-2.3-5.12-5.12s2.3-5.12,5.12-5.12,5.12,2.3,5.12,5.12-2.3,5.12-5.12,5.12ZM164.29,545.98c-2.27,0-4.12,1.85-4.12,4.12s1.85,4.12,4.12,4.12,4.12-1.85,4.12-4.12-1.85-4.12-4.12-4.12Z"/>
      </g>
      <ellipse class="cls--1" cx="243.31" cy="554.72" rx="20.26" ry="13.03"/>
      <g>
        <circle class="cls--4" cx="243.31" cy="554.72" r="4.62"/>
        <path class="cls--4" d="M243.31,559.84c-2.82,0-5.12-2.3-5.12-5.12s2.3-5.12,5.12-5.12,5.12,2.3,5.12,5.12-2.3,5.12-5.12,5.12ZM243.31,550.6c-2.27,0-4.12,1.85-4.12,4.12s1.85,4.12,4.12,4.12,4.12-1.85,4.12-4.12-1.85-4.12-4.12-4.12Z"/>
      </g>
      <ellipse class="cls--3" cx="64.6" cy="563.13" rx="20.26" ry="13.03"/>
      <g>
        <circle class="cls--4" cx="64.6" cy="563.13" r="4.62"/>
        <path class="cls--4" d="M64.6,568.25c-2.82,0-5.12-2.3-5.12-5.12s2.3-5.12,5.12-5.12,5.12,2.3,5.12,5.12-2.3,5.12-5.12,5.12ZM64.6,559.01c-2.27,0-4.12,1.85-4.12,4.12s1.85,4.12,4.12,4.12,4.12-1.85,4.12-4.12-1.85-4.12-4.12-4.12Z"/>
      </g>
      <ellipse class="cls--1" cx="78.01" cy="643.24" rx="20.26" ry="13.03"/>
      <g>
        <circle class="cls--4" cx="78.01" cy="643.24" r="4.62"/>
        <path class="cls--4" d="M78.01,648.36c-2.82,0-5.12-2.3-5.12-5.12s2.3-5.12,5.12-5.12,5.12,2.3,5.12,5.12-2.3,5.12-5.12,5.12ZM78.01,639.12c-2.27,0-4.12,1.85-4.12,4.12s1.85,4.12,4.12,4.12,4.12-1.85,4.12-4.12-1.85-4.12-4.12-4.12Z"/>
      </g>
      <ellipse class="cls--1" cx="227.67" cy="450.62" rx="20.26" ry="13.03"/>
      <g>
        <circle class="cls--4" cx="227.67" cy="450.62" r="4.62"/>
        <path class="cls--4" d="M227.67,455.74c-2.82,0-5.12-2.3-5.12-5.12s2.3-5.12,5.12-5.12,5.12,2.3,5.12,5.12-2.3,5.12-5.12,5.12ZM227.67,446.5c-2.27,0-4.12,1.85-4.12,4.12s1.85,4.12,4.12,4.12,4.12-1.85,4.12-4.12-1.85-4.12-4.12-4.12Z"/>
      </g>
      <ellipse class="cls--1" cx="310.57" cy="475.1" rx="20.26" ry="13.03"/>
      <g>
        <circle class="cls--4" cx="310.57" cy="475.1" r="4.62"/>
        <path class="cls--4" d="M310.57,480.22c-2.82,0-5.12-2.3-5.12-5.12s2.3-5.12,5.12-5.12,5.12,2.3,5.12,5.12-2.3,5.12-5.12,5.12ZM310.57,470.98c-2.27,0-4.12,1.85-4.12,4.12s1.85,4.12,4.12,4.12,4.12-1.85,4.12-4.12-1.85-4.12-4.12-4.12Z"/>
      </g>
      <ellipse class="cls--3" cx="501.16" cy="734.58" rx="13.03" ry="20.26"/>
      <g>
        <circle class="cls--4" cx="501.16" cy="734.58" r="4.62"/>
        <path class="cls--4" d="M501.16,739.7c-2.82,0-5.12-2.3-5.12-5.12s2.3-5.12,5.12-5.12,5.12,2.3,5.12,5.12-2.3,5.12-5.12,5.12ZM501.16,730.46c-2.27,0-4.12,1.85-4.12,4.12s1.85,4.12,4.12,4.12,4.12-1.85,4.12-4.12-1.85-4.12-4.12-4.12Z"/>
      </g>
      <ellipse class="cls--1" cx="550.1" cy="677.6" rx="13.03" ry="20.26"/>
      <g>
        <circle class="cls--4" cx="550.1" cy="677.6" r="4.62"/>
        <path class="cls--4" d="M550.1,682.72c-2.82,0-5.12-2.3-5.12-5.12s2.3-5.12,5.12-5.12,5.12,2.3,5.12,5.12-2.3,5.12-5.12,5.12ZM550.1,673.48c-2.27,0-4.12,1.85-4.12,4.12s1.85,4.12,4.12,4.12,4.12-1.85,4.12-4.12-1.85-4.12-4.12-4.12Z"/>
      </g>
      <ellipse class="cls--1" cx="554.72" cy="598.58" rx="13.03" ry="20.26"/>
      <g>
        <circle class="cls--4" cx="554.72" cy="598.58" r="4.62"/>
        <path class="cls--4" d="M554.72,603.7c-2.82,0-5.12-2.3-5.12-5.12s2.3-5.12,5.12-5.12,5.12,2.3,5.12,5.12-2.3,5.12-5.12,5.12ZM554.72,594.46c-2.27,0-4.12,1.85-4.12,4.12s1.85,4.12,4.12,4.12,4.12-1.85,4.12-4.12-1.85-4.12-4.12-4.12Z"/>
      </g>
      <ellipse class="cls--3" cx="563.13" cy="777.29" rx="13.03" ry="20.26"/>
      <g>
        <circle class="cls--4" cx="563.13" cy="777.29" r="4.62"/>
        <path class="cls--4" d="M563.13,782.41c-2.82,0-5.12-2.3-5.12-5.12s2.3-5.12,5.12-5.12,5.12,2.3,5.12,5.12-2.3,5.12-5.12,5.12ZM563.13,773.17c-2.27,0-4.12,1.85-4.12,4.12s1.85,4.12,4.12,4.12,4.12-1.85,4.12-4.12-1.85-4.12-4.12-4.12Z"/>
      </g>
      <ellipse class="cls--1" cx="643.24" cy="763.88" rx="13.03" ry="20.26"/>
      <g>
        <circle class="cls--4" cx="643.24" cy="763.88" r="4.62"/>
        <path class="cls--4" d="M643.24,769c-2.82,0-5.12-2.3-5.12-5.12s2.3-5.12,5.12-5.12,5.12,2.3,5.12,5.12-2.3,5.12-5.12,5.12ZM643.24,759.75c-2.27,0-4.12,1.85-4.12,4.12s1.85,4.12,4.12,4.12,4.12-1.85,4.12-4.12-1.85-4.12-4.12-4.12Z"/>
      </g>
      <ellipse class="cls--1" cx="450.62" cy="614.22" rx="13.03" ry="20.26"/>
      <ellipse class="cls--1" cx="475.1" cy="531.32" rx="13.03" ry="20.26"/>
      <g>
        <circle class="cls--4" cx="475.1" cy="531.32" r="4.62"/>
        <path class="cls--4" d="M475.1,536.44c-2.82,0-5.12-2.3-5.12-5.12s2.3-5.12,5.12-5.12,5.12,2.3,5.12,5.12-2.3,5.12-5.12,5.12ZM475.1,527.2c-2.27,0-4.12,1.85-4.12,4.12s1.85,4.12,4.12,4.12,4.12-1.85,4.12-4.12-1.85-4.12-4.12-4.12Z"/>
      </g>
      <ellipse class="cls--3" cx="734.58" cy="340.73" rx="20.26" ry="13.03"/>
      <g>
        <circle class="cls--4" cx="734.58" cy="340.73" r="4.62"/>
        <path class="cls--4" d="M734.58,345.85c-2.82,0-5.12-2.3-5.12-5.12s2.3-5.12,5.12-5.12,5.12,2.3,5.12,5.12-2.3,5.12-5.12,5.12ZM734.58,336.61c-2.27,0-4.12,1.85-4.12,4.12s1.85,4.12,4.12,4.12,4.12-1.85,4.12-4.12-1.85-4.12-4.12-4.12Z"/>
      </g>
      <ellipse class="cls--1" cx="677.6" cy="291.79" rx="20.26" ry="13.03"/>
      <g>
        <circle class="cls--4" cx="677.6" cy="291.79" r="4.62"/>
        <path class="cls--4" d="M677.6,296.91c-2.82,0-5.12-2.3-5.12-5.12s2.3-5.12,5.12-5.12,5.12,2.3,5.12,5.12-2.3,5.12-5.12,5.12ZM677.6,287.67c-2.27,0-4.12,1.85-4.12,4.12s1.85,4.12,4.12,4.12,4.12-1.85,4.12-4.12-1.85-4.12-4.12-4.12Z"/>
      </g>
      <ellipse class="cls--1" cx="598.58" cy="287.17" rx="20.26" ry="13.03"/>
      <g>
        <circle class="cls--4" cx="598.58" cy="287.17" r="4.62"/>
        <path class="cls--4" d="M598.58,292.29c-2.82,0-5.12-2.3-5.12-5.12s2.3-5.12,5.12-5.12,5.12,2.3,5.12,5.12-2.3,5.12-5.12,5.12ZM598.58,283.05c-2.27,0-4.12,1.85-4.12,4.12s1.85,4.12,4.12,4.12,4.12-1.85,4.12-4.12-1.85-4.12-4.12-4.12Z"/>
      </g>
      <ellipse class="cls--3" cx="777.29" cy="278.76" rx="20.26" ry="13.03"/>
      <g>
        <circle class="cls--4" cx="777.29" cy="278.76" r="4.62"/>
        <path class="cls--4" d="M777.29,283.88c-2.82,0-5.12-2.3-5.12-5.12s2.3-5.12,5.12-5.12,5.12,2.3,5.12,5.12-2.3,5.12-5.12,5.12ZM777.29,274.64c-2.27,0-4.12,1.85-4.12,4.12s1.85,4.12,4.12,4.12,4.12-1.85,4.12-4.12-1.85-4.12-4.12-4.12Z"/>
      </g>
      <ellipse class="cls--1" cx="763.88" cy="198.65" rx="20.26" ry="13.03"/>
      <g>
        <circle class="cls--4" cx="763.88" cy="198.65" r="4.62"/>
        <path class="cls--4" d="M763.88,203.77c-2.82,0-5.12-2.3-5.12-5.12s2.3-5.12,5.12-5.12,5.12,2.3,5.12,5.12-2.3,5.12-5.12,5.12ZM763.88,194.53c-2.27,0-4.12,1.85-4.12,4.12s1.85,4.12,4.12,4.12,4.12-1.85,4.12-4.12-1.85-4.12-4.12-4.12Z"/>
      </g>
      <ellipse class="cls--1" cx="614.22" cy="391.27" rx="20.26" ry="13.03"/>
      <ellipse class="cls--1" cx="531.32" cy="366.79" rx="20.26" ry="13.03"/>
      <g>
        <circle class="cls--4" cx="531.32" cy="366.79" r="4.62"/>
        <path class="cls--4" d="M531.32,371.91c-2.82,0-5.12-2.3-5.12-5.12s2.3-5.12,5.12-5.12,5.12,2.3,5.12,5.12-2.3,5.12-5.12,5.12ZM531.32,362.67c-2.27,0-4.12,1.85-4.12,4.12s1.85,4.12,4.12,4.12,4.12-1.85,4.12-4.12-1.85-4.12-4.12-4.12Z"/>
      </g>
      <ellipse class="cls--3" cx="340.73" cy="107.31" rx="13.03" ry="20.26"/>
      <g>
        <circle class="cls--4" cx="340.73" cy="107.31" r="4.62"/>
        <path class="cls--4" d="M340.73,112.43c-2.82,0-5.12-2.3-5.12-5.12s2.3-5.12,5.12-5.12,5.12,2.3,5.12,5.12-2.3,5.12-5.12,5.12ZM340.73,103.19c-2.27,0-4.12,1.85-4.12,4.12s1.85,4.12,4.12,4.12,4.12-1.85,4.12-4.12-1.85-4.12-4.12-4.12Z"/>
      </g>
      <ellipse class="cls--1" cx="291.79" cy="164.29" rx="13.03" ry="20.26"/>
      <g>
        <circle class="cls--4" cx="291.79" cy="164.29" r="4.62"/>
        <path class="cls--4" d="M291.79,169.41c-2.82,0-5.12-2.3-5.12-5.12s2.3-5.12,5.12-5.12,5.12,2.3,5.12,5.12-2.3,5.12-5.12,5.12ZM291.79,160.17c-2.27,0-4.12,1.85-4.12,4.12s1.85,4.12,4.12,4.12,4.12-1.85,4.12-4.12-1.85-4.12-4.12-4.12Z"/>
      </g>
      <ellipse class="cls--1" cx="287.17" cy="243.31" rx="13.03" ry="20.26"/>
      <g>
        <circle class="cls--4" cx="287.17" cy="243.31" r="4.62"/>
        <path class="cls--4" d="M287.17,248.43c-2.82,0-5.12-2.3-5.12-5.12s2.3-5.12,5.12-5.12,5.12,2.3,5.12,5.12-2.3,5.12-5.12,5.12ZM287.17,239.19c-2.27,0-4.12,1.85-4.12,4.12s1.85,4.12,4.12,4.12,4.12-1.85,4.12-4.12-1.85-4.12-4.12-4.12Z"/>
      </g>
      <ellipse class="cls--3" cx="278.76" cy="64.6" rx="13.03" ry="20.26"/>
      <g>
        <circle class="cls--4" cx="278.76" cy="64.6" r="4.62"/>
        <path class="cls--4" d="M278.76,69.72c-2.82,0-5.12-2.3-5.12-5.12s2.3-5.12,5.12-5.12,5.12,2.3,5.12,5.12-2.3,5.12-5.12,5.12ZM278.76,60.48c-2.27,0-4.12,1.85-4.12,4.12s1.85,4.12,4.12,4.12,4.12-1.85,4.12-4.12-1.85-4.12-4.12-4.12Z"/>
      </g>
      <ellipse class="cls--1" cx="198.65" cy="78.01" rx="13.03" ry="20.26"/>
      <g>
        <circle class="cls--4" cx="198.65" cy="78.01" r="4.62"/>
        <path class="cls--4" d="M198.65,83.14c-2.82,0-5.12-2.3-5.12-5.12s2.3-5.12,5.12-5.12,5.12,2.3,5.12,5.12-2.3,5.12-5.12,5.12ZM198.65,73.89c-2.27,0-4.12,1.85-4.12,4.12s1.85,4.12,4.12,4.12,4.12-1.85,4.12-4.12-1.85-4.12-4.12-4.12Z"/>
      </g>
      <ellipse class="cls--1" cx="391.27" cy="227.67" rx="13.03" ry="20.26"/>
      <ellipse class="cls--1" cx="366.79" cy="310.57" rx="13.03" ry="20.26"/>
      <g>
        <circle class="cls--4" cx="366.79" cy="310.57" r="4.62"/>
        <path class="cls--4" d="M366.79,315.69c-2.82,0-5.12-2.3-5.12-5.12s2.3-5.12,5.12-5.12,5.12,2.3,5.12,5.12-2.3,5.12-5.12,5.12ZM366.79,306.45c-2.27,0-4.12,1.85-4.12,4.12s1.85,4.12,4.12,4.12,4.12-1.85,4.12-4.12-1.85-4.12-4.12-4.12Z"/>
      </g>
      <circle class="cls--2" cx="260.38" cy="592.98" r="7.72"/>
      <circle class="cls--2" cx="144.03" cy="633.26" r="7.72"/>
      <circle class="cls--2" cx="82.29" cy="455.24" r="7.72"/>
      <circle class="cls--2" cx="7.72" cy="553.1" r="7.72"/>
      <circle class="cls--2" cx="370.71" cy="554.72" r="7.72"/>
      <circle class="cls--2" cx="417.32" cy="521.91" r="7.72"/>
      <circle class="cls--2" cx="238.69" cy="397.87" r="7.72"/>
      <circle class="cls--2" cx="592.98" cy="581.51" r="7.72"/>
      <circle class="cls--2" cx="633.26" cy="697.86" r="7.72"/>
      <circle class="cls--2" cx="455.24" cy="759.6" r="7.72"/>
      <circle class="cls--2" cx="553.1" cy="834.17" r="7.72"/>
      <circle class="cls--2" cx="554.72" cy="471.18" r="7.72"/>
      <circle class="cls--2" cx="521.91" cy="424.57" r="7.72"/>
      <circle class="cls--2" cx="397.87" cy="603.2" r="7.72"/>
      <circle class="cls--2" cx="581.51" cy="248.91" r="7.72"/>
      <circle class="cls--2" cx="697.86" cy="208.63" r="7.72"/>
      <circle class="cls--2" cx="759.6" cy="386.65" r="7.72"/>
      <circle class="cls--2" cx="834.17" cy="288.79" r="7.72"/>
      <circle class="cls--2" cx="471.18" cy="287.17" r="7.72"/>
      <circle class="cls--2" cx="424.57" cy="319.98" r="7.72"/>
      <circle class="cls--2" cx="603.2" cy="444.02" r="7.72"/>
      <circle class="cls--2" cx="248.91" cy="260.38" r="7.72"/>
      <circle class="cls--2" cx="208.63" cy="144.03" r="7.72"/>
      <circle class="cls--2" cx="386.65" cy="82.29" r="7.72"/>
      <circle class="cls--2" cx="288.79" cy="7.72" r="7.72"/>
      <circle class="cls--2" cx="287.17" cy="370.71" r="7.72"/>
      <circle class="cls--2" cx="319.98" cy="417.32" r="7.72"/>
      <circle class="cls--2" cx="444.02" cy="238.69" r="7.72"/>
    </g>
  </g>
</svg>