<?xml version="1.0" encoding="UTF-8"?>
<svg id="_图层_2" data-name="图层 2" xmlns="http://www.w3.org/2000/svg" viewBox="0 0 841.89 841.89">
  <defs>
    <style>
      .cls--1 {
        fill: #bea272;
      }

      .cls--1, .cls--2, .cls--3 {
        stroke-width: 0px;
      }

      .cls--2 {
        fill: #7c311f;
      }

      .cls--3 {
        fill: #c1a175;
      }

      .cls--4 {
        fill: #231815;
      }

      .cls--4, .cls--5 {
        stroke: #231815;
        stroke-miterlimit: 10;
      }

      .cls--5 {
        fill: none;
      }
    </style>
  </defs>
  <g id="_6" data-name="6">
    <g>
      <circle class="cls--5" cx="421.28" cy="420.94" r="23.07"/>
      <circle class="cls--4" cx="420.94" cy="420.94" r="4.09"/>
      <circle class="cls--5" cx="375.14" cy="491.11" r="23.07"/>
      <circle class="cls--4" cx="374.8" cy="491.11" r="4.09"/>
      <circle class="cls--5" cx="324.17" cy="543.78" r="23.07"/>
      <circle class="cls--4" cx="323.83" cy="543.78" r="4.09"/>
      <circle class="cls--5" cx="245.03" cy="514.19" r="23.07"/>
      <circle class="cls--4" cx="244.69" cy="514.19" r="4.09"/>
      <circle class="cls--5" cx="160.89" cy="480.43" r="23.07"/>
      <circle class="cls--4" cx="160.55" cy="480.43" r="4.09"/>
      <circle class="cls--5" cx="111.69" cy="539.68" r="13.41"/>
      <circle class="cls--4" cx="111.49" cy="539.68" r="2.38"/>
      <circle class="cls--5" cx="34.62" cy="611.26" r="22"/>
      <circle class="cls--4" cx="34.3" cy="611.26" r="3.9"/>
      <circle class="cls--5" cx="491.11" cy="466.75" r="23.07"/>
      <circle class="cls--4" cx="491.11" cy="467.09" r="4.09"/>
      <circle class="cls--5" cx="543.78" cy="517.72" r="23.07"/>
      <circle class="cls--4" cx="543.78" cy="518.06" r="4.09"/>
      <circle class="cls--5" cx="514.19" cy="596.86" r="23.07"/>
      <circle class="cls--4" cx="514.19" cy="597.2" r="4.09"/>
      <circle class="cls--5" cx="480.43" cy="681" r="23.07"/>
      <circle class="cls--4" cx="480.43" cy="681.34" r="4.09"/>
      <circle class="cls--5" cx="539.68" cy="730.2" r="13.41"/>
      <circle class="cls--4" cx="539.68" cy="730.4" r="2.38"/>
      <circle class="cls--5" cx="611.26" cy="807.27" r="22"/>
      <circle class="cls--4" cx="611.26" cy="807.59" r="3.9"/>
      <circle class="cls--5" cx="466.75" cy="350.78" r="23.07"/>
      <circle class="cls--4" cx="467.09" cy="350.78" r="4.09"/>
      <circle class="cls--5" cx="517.72" cy="298.11" r="23.07"/>
      <circle class="cls--4" cx="518.06" cy="298.11" r="4.09"/>
      <circle class="cls--5" cx="596.86" cy="327.7" r="23.07"/>
      <circle class="cls--4" cx="597.2" cy="327.7" r="4.09"/>
      <circle class="cls--5" cx="681" cy="361.46" r="23.07"/>
      <circle class="cls--4" cx="681.34" cy="361.46" r="4.09"/>
      <circle class="cls--5" cx="730.2" cy="302.2" r="13.41"/>
      <circle class="cls--4" cx="730.4" cy="302.2" r="2.38"/>
      <circle class="cls--5" cx="807.27" cy="230.63" r="22"/>
      <circle class="cls--4" cx="807.59" cy="230.63" r="3.9"/>
      <circle class="cls--5" cx="350.78" cy="375.14" r="23.07"/>
      <circle class="cls--4" cx="350.78" cy="374.8" r="4.09"/>
      <circle class="cls--5" cx="298.11" cy="324.17" r="23.07"/>
      <circle class="cls--4" cx="298.11" cy="323.83" r="4.09"/>
      <circle class="cls--5" cx="327.7" cy="245.03" r="23.07"/>
      <circle class="cls--4" cx="327.7" cy="244.69" r="4.09"/>
      <circle class="cls--5" cx="361.46" cy="160.89" r="23.07"/>
      <circle class="cls--4" cx="361.46" cy="160.55" r="4.09"/>
      <circle class="cls--5" cx="302.2" cy="111.69" r="13.41"/>
      <circle class="cls--4" cx="302.2" cy="111.49" r="2.38"/>
      <circle class="cls--5" cx="230.63" cy="34.62" r="22"/>
      <circle class="cls--4" cx="230.63" cy="34.3" r="3.9"/>
      <ellipse class="cls--3" cx="107.31" cy="501.16" rx="20.26" ry="13.03"/>
      <circle class="cls--4" cx="107.31" cy="501.16" r="4.62"/>
      <ellipse class="cls--1" cx="164.29" cy="550.1" rx="20.26" ry="13.03"/>
      <circle class="cls--4" cx="164.29" cy="550.1" r="4.62"/>
      <ellipse class="cls--1" cx="243.31" cy="554.72" rx="20.26" ry="13.03"/>
      <circle class="cls--4" cx="243.31" cy="554.72" r="4.62"/>
      <ellipse class="cls--3" cx="64.6" cy="563.13" rx="20.26" ry="13.03"/>
      <circle class="cls--4" cx="64.6" cy="563.13" r="4.62"/>
      <ellipse class="cls--1" cx="78.01" cy="643.24" rx="20.26" ry="13.03"/>
      <circle class="cls--4" cx="78.01" cy="643.24" r="4.62"/>
      <ellipse class="cls--1" cx="227.67" cy="450.62" rx="20.26" ry="13.03"/>
      <circle class="cls--4" cx="227.67" cy="450.62" r="4.62"/>
      <ellipse class="cls--1" cx="310.57" cy="475.1" rx="20.26" ry="13.03"/>
      <circle class="cls--4" cx="310.57" cy="475.1" r="4.62"/>
      <ellipse class="cls--3" cx="501.16" cy="734.58" rx="13.03" ry="20.26"/>
      <circle class="cls--4" cx="501.16" cy="734.58" r="4.62"/>
      <ellipse class="cls--1" cx="550.1" cy="677.6" rx="13.03" ry="20.26"/>
      <circle class="cls--4" cx="550.1" cy="677.6" r="4.62"/>
      <ellipse class="cls--1" cx="554.72" cy="598.58" rx="13.03" ry="20.26"/>
      <circle class="cls--4" cx="554.72" cy="598.58" r="4.62"/>
      <ellipse class="cls--3" cx="563.13" cy="777.29" rx="13.03" ry="20.26"/>
      <circle class="cls--4" cx="563.13" cy="777.29" r="4.62"/>
      <ellipse class="cls--1" cx="643.24" cy="763.88" rx="13.03" ry="20.26"/>
      <circle class="cls--4" cx="643.24" cy="763.88" r="4.62"/>
      <ellipse class="cls--1" cx="450.62" cy="614.22" rx="13.03" ry="20.26"/>
      <ellipse class="cls--1" cx="475.1" cy="531.32" rx="13.03" ry="20.26"/>
      <circle class="cls--4" cx="475.1" cy="531.32" r="4.62"/>
      <ellipse class="cls--3" cx="734.58" cy="340.73" rx="20.26" ry="13.03"/>
      <circle class="cls--4" cx="734.58" cy="340.73" r="4.62"/>
      <ellipse class="cls--1" cx="677.6" cy="291.79" rx="20.26" ry="13.03"/>
      <circle class="cls--4" cx="677.6" cy="291.79" r="4.62"/>
      <ellipse class="cls--1" cx="598.58" cy="287.17" rx="20.26" ry="13.03"/>
      <circle class="cls--4" cx="598.58" cy="287.17" r="4.62"/>
      <ellipse class="cls--3" cx="777.29" cy="278.76" rx="20.26" ry="13.03"/>
      <circle class="cls--4" cx="777.29" cy="278.76" r="4.62"/>
      <ellipse class="cls--1" cx="763.88" cy="198.65" rx="20.26" ry="13.03"/>
      <circle class="cls--4" cx="763.88" cy="198.65" r="4.62"/>
      <ellipse class="cls--1" cx="614.22" cy="391.27" rx="20.26" ry="13.03"/>
      <ellipse class="cls--1" cx="531.32" cy="366.79" rx="20.26" ry="13.03"/>
      <circle class="cls--4" cx="531.32" cy="366.79" r="4.62"/>
      <ellipse class="cls--3" cx="340.73" cy="107.31" rx="13.03" ry="20.26"/>
      <circle class="cls--4" cx="340.73" cy="107.31" r="4.62"/>
      <ellipse class="cls--1" cx="291.79" cy="164.29" rx="13.03" ry="20.26"/>
      <circle class="cls--4" cx="291.79" cy="164.29" r="4.62"/>
      <ellipse class="cls--1" cx="287.17" cy="243.31" rx="13.03" ry="20.26"/>
      <circle class="cls--4" cx="287.17" cy="243.31" r="4.62"/>
      <ellipse class="cls--3" cx="278.76" cy="64.6" rx="13.03" ry="20.26"/>
      <circle class="cls--4" cx="278.76" cy="64.6" r="4.62"/>
      <ellipse class="cls--1" cx="198.65" cy="78.01" rx="13.03" ry="20.26"/>
      <circle class="cls--4" cx="198.65" cy="78.01" r="4.62"/>
      <ellipse class="cls--1" cx="391.27" cy="227.67" rx="13.03" ry="20.26"/>
      <ellipse class="cls--1" cx="366.79" cy="310.57" rx="13.03" ry="20.26"/>
      <circle class="cls--4" cx="366.79" cy="310.57" r="4.62"/>
      <circle class="cls--2" cx="260.38" cy="592.98" r="7.72"/>
      <circle class="cls--2" cx="144.03" cy="633.26" r="7.72"/>
      <circle class="cls--2" cx="82.29" cy="455.24" r="7.72"/>
      <circle class="cls--2" cx="7.72" cy="553.1" r="7.72"/>
      <circle class="cls--2" cx="370.71" cy="554.72" r="7.72"/>
      <circle class="cls--2" cx="417.32" cy="521.91" r="7.72"/>
      <circle class="cls--2" cx="238.69" cy="397.87" r="7.72"/>
      <circle class="cls--2" cx="592.98" cy="581.51" r="7.72"/>
      <circle class="cls--2" cx="633.26" cy="697.86" r="7.72"/>
      <circle class="cls--2" cx="455.24" cy="759.6" r="7.72"/>
      <circle class="cls--2" cx="553.1" cy="834.17" r="7.72"/>
      <circle class="cls--2" cx="554.72" cy="471.18" r="7.72"/>
      <circle class="cls--2" cx="521.91" cy="424.57" r="7.72"/>
      <circle class="cls--2" cx="397.87" cy="603.2" r="7.72"/>
      <circle class="cls--2" cx="581.51" cy="248.91" r="7.72"/>
      <circle class="cls--2" cx="697.86" cy="208.63" r="7.72"/>
      <circle class="cls--2" cx="759.6" cy="386.65" r="7.72"/>
      <circle class="cls--2" cx="834.17" cy="288.79" r="7.72"/>
      <circle class="cls--2" cx="471.18" cy="287.17" r="7.72"/>
      <circle class="cls--2" cx="424.57" cy="319.98" r="7.72"/>
      <circle class="cls--2" cx="603.2" cy="444.02" r="7.72"/>
      <circle class="cls--2" cx="248.91" cy="260.38" r="7.72"/>
      <circle class="cls--2" cx="208.63" cy="144.03" r="7.72"/>
      <circle class="cls--2" cx="386.65" cy="82.29" r="7.72"/>
      <circle class="cls--2" cx="288.79" cy="7.72" r="7.72"/>
      <circle class="cls--2" cx="287.17" cy="370.71" r="7.72"/>
      <circle class="cls--2" cx="319.98" cy="417.32" r="7.72"/>
      <circle class="cls--2" cx="444.02" cy="238.69" r="7.72"/>
    </g>
  </g>
</svg>