<?xml version="1.0" encoding="UTF-8"?>
<svg class="patternfilter" id="_图层_2" data-name="图层 2" xmlns="http://www.w3.org/2000/svg" viewBox="0 0 853.34 845.9">
  <g id="_7" data-name="7">
    <g>
      <circle class="cls--1" cx="418.77" cy="137.81" r="7.01"/>
      <circle class="cls--1" cx="453.63" cy="151.88" r="7.01"/>
      <circle class="cls--1" cx="475.88" cy="197.06" r="7.01"/>
      <circle class="cls--1" cx="384.22" cy="156.28" r="7.01"/>
      <circle class="cls--1" cx="368.37" cy="203.15" r="7.01"/>
      <circle class="cls--1" cx="500.14" cy="238.74" r="7.01"/>
      <circle class="cls--1" cx="348" cy="240.04" r="7.01"/>
      <circle class="cls--1" cx="240.46" cy="207.01" r="7.01"/>
      <circle class="cls--1" cx="276.21" cy="195.38" r="7.01"/>
      <circle class="cls--1" cx="322.3" cy="215.69" r="7.01"/>
      <circle class="cls--1" cx="225.87" cy="243.38" r="7.01"/>
      <circle class="cls--1" cx="243.85" cy="289.46" r="7.01"/>
      <circle class="cls--1" cx="367.67" cy="232.03" r="7.01"/>
      <circle class="cls--1" cx="251.96" cy="330.82" r="7.01"/>
      <circle class="cls--1" cx="148.35" cy="374.64" r="7.01"/>
      <circle class="cls--1" cx="168.27" cy="342.75" r="7.01"/>
      <circle class="cls--1" cx="216.62" cy="328.69" r="7.01"/>
      <circle class="cls--1" cx="160.55" cy="411.88" r="7.01"/>
      <circle class="cls--1" cx="203.95" cy="435.63" r="7.01"/>
      <circle class="cls--1" cx="261.88" cy="312.04" r="7.01"/>
      <circle class="cls--1" cx="236.74" cy="462.1" r="7.01"/>
      <circle class="cls--1" cx="185.54" cy="562.26" r="7.01"/>
      <circle class="cls--1" cx="180.3" cy="525.03" r="7.01"/>
      <circle class="cls--1" cx="208.3" cy="483.18" r="7.01"/>
      <circle class="cls--1" cx="218.82" cy="582.94" r="7.01"/>
      <circle class="cls--1" cx="267.33" cy="573.24" r="7.01"/>
      <circle class="cls--1" cx="232.27" cy="441.33" r="7.01"/>
      <circle class="cls--1" cx="309.47" cy="572.44" r="7.01"/>
      <circle class="cls--1" cx="334.63" cy="682.08" r="7.01"/>
      <circle class="cls--1" cx="306.69" cy="656.93" r="7.01"/>
      <circle class="cls--1" cx="301.23" cy="606.87" r="7.01"/>
      <circle class="cls--1" cx="373.42" cy="676.53" r="7.01"/>
      <circle class="cls--1" cx="404.34" cy="637.92" r="7.01"/>
      <circle class="cls--1" cx="292.69" cy="559.4" r="7.01"/>
      <circle class="cls--1" cx="436.11" cy="610.22" r="7.01"/>
      <circle class="cls--1" cx="525.86" cy="678.04" r="7.01"/>
      <circle class="cls--1" cx="488.28" cy="676.73" r="7.01"/>
      <circle class="cls--1" cx="451.93" cy="641.89" r="7.01"/>
      <circle class="cls--1" cx="552" cy="648.85" r="7.01"/>
      <circle class="cls--1" cx="550.87" cy="599.39" r="7.01"/>
      <circle class="cls--1" cx="414.87" cy="611.02" r="7.01"/>
      <circle class="cls--1" cx="557.4" cy="557.76" r="7.01"/>
      <circle class="cls--1" cx="669.75" cy="552.02" r="7.01"/>
      <circle class="cls--1" cx="640.13" cy="575.17" r="7.01"/>
      <circle class="cls--1" cx="589.88" cy="571.85" r="7.01"/>
      <circle class="cls--1" cx="671.02" cy="512.86" r="7.01"/>
      <circle class="cls--1" cx="638.36" cy="475.7" r="7.01"/>
      <circle class="cls--1" cx="541.65" cy="572.02" r="7.01"/>
      <circle class="cls--1" cx="616.6" cy="439.6" r="7.01"/>
      <circle class="cls--1" cx="698.97" cy="362.99" r="7.01"/>
      <circle class="cls--1" cx="691.16" cy="399.77" r="7.01"/>
      <circle class="cls--1" cx="650.53" cy="429.53" r="7.01"/>
      <circle class="cls--1" cx="674.77" cy="332.18" r="7.01"/>
      <circle class="cls--1" cx="625.87" cy="324.7" r="7.01"/>
      <circle class="cls--1" cx="613.7" cy="460.65" r="7.01"/>
      <circle class="cls--1" cx="585.99" cy="311.04" r="7.01"/>
      <circle class="cls--1" cx="599.85" cy="199.41" r="7.01"/>
      <circle class="cls--1" cx="617.51" cy="232.6" r="7.01"/>
      <circle class="cls--1" cx="605.51" cy="281.51" r="7.01"/>
      <circle class="cls--1" cx="561.51" cy="191.35" r="7.01"/>
      <circle class="cls--1" cx="519.24" cy="217.06" r="7.01"/>
      <circle class="cls--1" cx="597.3" cy="329.03" r="7.01"/>
      <circle class="cls--1" cx="479.92" cy="232.23" r="7.01"/>
      <path class="cls--1" d="M424.84,215.55c-8.5,0-16.69-4.72-20.69-12.85-2.72-5.52-3.12-11.76-1.14-17.58s6.11-10.52,11.62-13.24c5.52-2.72,11.76-3.12,17.58-1.14,5.82,1.98,10.53,6.11,13.24,11.62,5.61,11.39.91,25.22-10.48,30.82-3.26,1.61-6.72,2.37-10.14,2.37ZM424.79,173.5c-2.88,0-5.73.66-8.39,1.97-4.56,2.25-7.97,6.13-9.6,10.94s-1.3,9.97.94,14.53h0c4.63,9.41,16.06,13.29,25.47,8.66,9.41-4.63,13.29-16.06,8.66-25.47-2.25-4.56-6.13-7.97-10.94-9.6-2.01-.68-4.08-1.02-6.14-1.02Z"/>
      <path class="cls--1" d="M280.22,268.08c-3.1,0-6.24-.63-9.25-1.95-5.63-2.48-9.95-7-12.18-12.73s-2.09-11.99.39-17.62c5.12-11.62,18.74-16.9,30.35-11.78,11.62,5.12,16.9,18.73,11.79,30.35-3.79,8.61-12.25,13.74-21.1,13.74ZM280.28,226.04c-7.31,0-14.3,4.24-17.43,11.35-2.05,4.65-2.16,9.82-.32,14.56,1.84,4.74,5.41,8.47,10.06,10.52h0c4.65,2.05,9.82,2.16,14.55.32,4.74-1.84,8.47-5.41,10.52-10.06,4.23-9.6-.14-20.85-9.74-25.08-2.49-1.1-5.08-1.61-7.64-1.61Z"/>
      <path class="cls--1" d="M203.26,401.24c-3.82,0-7.61-.96-11.05-2.85-5.39-2.96-9.3-7.84-11.02-13.75-1.72-5.9-1.03-12.12,1.93-17.51,2.96-5.39,7.84-9.3,13.75-11.02,12.19-3.55,24.99,3.48,28.54,15.67,3.55,12.19-3.49,24.99-15.67,28.54h0c-2.13.62-4.3.93-6.46.93ZM203.28,359.18c-1.75,0-3.54.25-5.31.76-4.88,1.42-8.91,4.65-11.36,9.11s-3.01,9.59-1.59,14.47c1.42,4.88,4.65,8.91,9.11,11.36,4.45,2.45,9.59,3.01,14.47,1.59h0c10.07-2.93,15.88-13.51,12.95-23.58-2.42-8.3-10.03-13.71-18.27-13.71Z"/>
      <path class="cls--1" d="M229.87,552.7c-4.51,0-8.92-1.33-12.75-3.89-10.55-7.06-13.39-21.38-6.34-31.94,7.06-10.55,21.38-13.39,31.94-6.33,10.55,7.06,13.39,21.38,6.34,31.94-3.42,5.11-8.62,8.58-14.66,9.78-1.51.3-3.02.45-4.53.45ZM229.95,510.66c-6.14,0-12.18,2.96-15.84,8.44-5.83,8.72-3.48,20.56,5.23,26.39,4.22,2.82,9.29,3.84,14.28,2.85,4.98-.99,9.28-3.86,12.11-8.08,5.83-8.72,3.48-20.56-5.23-26.39-3.24-2.17-6.91-3.21-10.55-3.21Z"/>
      <path class="cls--1" d="M347.64,651.62c-5.22,0-10.25-1.76-14.37-5.08-4.79-3.85-7.8-9.34-8.47-15.45s1.09-12.12,4.94-16.91,9.34-7.8,15.45-8.47c6.11-.67,12.12,1.09,16.91,4.94,4.79,3.85,7.8,9.34,8.47,15.45s-1.09,12.12-4.94,16.91-9.34,7.8-15.45,8.47c-.85.09-1.7.14-2.54.14ZM347.72,609.57c-.7,0-1.4.04-2.1.11-5.05.55-9.59,3.04-12.77,7-3.18,3.96-4.63,8.92-4.08,13.97s3.04,9.59,7,12.77c3.96,3.18,8.93,4.64,13.98,4.08,5.05-.55,9.59-3.04,12.77-7,3.18-3.96,4.63-8.92,4.08-13.97h0c-.55-5.05-3.04-9.59-7-12.77-3.41-2.74-7.56-4.2-11.88-4.2Z"/>
      <path class="cls--1" d="M501.46,651.69c-5.96,0-11.6-2.26-15.91-6.4-9.17-8.78-9.48-23.39-.69-32.55,4.25-4.44,9.98-6.96,16.13-7.09,6.12-.1,11.98,2.14,16.42,6.39,9.17,8.78,9.48,23.39.69,32.55-4.25,4.44-9.98,6.96-16.13,7.09-.17,0-.34,0-.5,0ZM501.48,609.65c-.14,0-.28,0-.42,0-5.08.11-9.81,2.19-13.33,5.86-3.52,3.67-5.39,8.49-5.28,13.57.11,5.08,2.19,9.81,5.86,13.33,3.67,3.52,8.51,5.39,13.57,5.28,5.08-.11,9.81-2.19,13.33-5.86,7.26-7.57,7-19.64-.57-26.89-3.57-3.42-8.22-5.29-13.15-5.29Z"/>
      <path class="cls--1" d="M619.37,552.9c-.52,0-1.03-.02-1.55-.05-6.14-.41-11.75-3.18-15.8-7.8-4.05-4.63-6.06-10.55-5.66-16.69s3.18-11.75,7.8-15.8,10.55-6.06,16.69-5.66h0c12.67.84,22.29,11.82,21.46,24.49-.41,6.14-3.18,11.75-7.8,15.8-4.23,3.71-9.56,5.71-15.14,5.71ZM619.31,510.85c-4.61,0-9.01,1.65-12.51,4.72-3.82,3.35-6.11,7.98-6.45,13.05-.69,10.47,7.26,19.54,17.73,20.23,5.08.33,9.97-1.33,13.79-4.67,3.82-3.35,6.11-7.98,6.45-13.05.69-10.46-7.26-19.54-17.73-20.23h0c-.43-.03-.86-.04-1.28-.04Z"/>
      <path class="cls--1" d="M646.15,401.45c-7.09,0-14.1-3.26-18.6-9.41-7.5-10.24-5.27-24.68,4.97-32.18h0c4.96-3.63,11.04-5.12,17.12-4.18,6.08.94,11.43,4.19,15.06,9.15,7.5,10.24,5.27,24.68-4.97,32.18-4.09,3-8.85,4.44-13.57,4.44ZM646.08,359.41c-4.01,0-7.9,1.27-11.2,3.68h0c-8.46,6.2-10.3,18.12-4.11,26.59,3,4.1,7.42,6.78,12.44,7.56,5.02.78,10.04-.45,14.14-3.45,8.46-6.2,10.3-18.12,4.11-26.59-3-4.1-7.42-6.78-12.44-7.56-.98-.15-1.97-.23-2.94-.23Z"/>
      <path class="cls--1" d="M569.29,268.23c-1.81,0-3.65-.21-5.48-.67-5.97-1.46-11.02-5.17-14.21-10.43-3.19-5.26-4.14-11.44-2.67-17.42,1.46-5.97,5.17-11.02,10.43-14.2,5.26-3.19,11.44-4.14,17.42-2.67,12.33,3.02,19.9,15.51,16.88,27.84-2.57,10.49-12.01,17.54-22.36,17.54ZM569.26,226.18c-3.43,0-6.81.94-9.83,2.76-4.34,2.63-7.4,6.8-8.61,11.74h0c-1.21,4.94-.43,10.05,2.21,14.39s6.8,7.4,11.74,8.62c10.18,2.5,20.51-3.76,23-13.94,2.5-10.19-3.76-20.51-13.94-23.01-1.51-.37-3.04-.55-4.56-.55Z"/>
      <circle class="cls--1" cx="424.69" cy="417.36" r="22.64"/>
      <path class="cls--1" d="M424.69,510.54c-51.38,0-93.18-41.8-93.18-93.18s41.8-93.18,93.18-93.18,93.18,41.8,93.18,93.18-41.8,93.18-93.18,93.18ZM424.69,344.18c-40.35,0-73.18,32.83-73.18,73.18s32.83,73.18,73.18,73.18,73.18-32.83,73.18-73.18-32.83-73.18-73.18-73.18Z"/>
      <path class="cls--1" d="M424.69,549.82c-73.04,0-132.46-59.42-132.46-132.46s59.42-132.46,132.46-132.46,132.46,59.42,132.46,132.46-59.42,132.46-132.46,132.46ZM424.69,294.91c-67.52,0-122.46,54.93-122.46,122.46s54.93,122.46,122.46,122.46,122.46-54.93,122.46-122.46-54.93-122.46-122.46-122.46Z"/>
      <path class="cls--1" d="M720.02,273.41c-1.81,0-3.65-.22-5.48-.67-12.33-3.02-19.9-15.51-16.88-27.84h0c3.02-12.33,15.51-19.9,27.84-16.88,12.33,3.02,19.9,15.51,16.88,27.84-2.57,10.49-12.01,17.54-22.36,17.54ZM701.55,245.85h0c-2.5,10.19,3.76,20.51,13.94,23.01,10.18,2.5,20.51-3.76,23.01-13.94,2.5-10.19-3.76-20.51-13.94-23.01-10.18-2.5-20.51,3.76-23.01,13.94Z"/>
      <path class="cls--1" d="M543.61,122.65c-2.5,0-5-.41-7.43-1.24-5.82-1.98-10.52-6.11-13.24-11.62-2.72-5.52-3.12-11.76-1.14-17.58,1.98-5.82,6.11-10.52,11.62-13.24,11.39-5.61,25.22-.91,30.83,10.48,2.72,5.52,3.12,11.76,1.14,17.58s-6.11,10.52-11.62,13.24c-3.21,1.58-6.67,2.38-10.15,2.38ZM543.56,80.59c-2.82,0-5.68.63-8.37,1.96-4.56,2.25-7.97,6.13-9.61,10.94-1.63,4.81-1.3,9.97.95,14.53h0c2.25,4.56,6.13,7.97,10.94,9.6,4.81,1.64,9.97,1.3,14.53-.94,4.56-2.25,7.97-6.13,9.61-10.94s1.3-9.97-.94-14.53c-3.31-6.71-10.07-10.62-17.1-10.62Z"/>
      <path class="cls--1" d="M311.5,120.54c-3.1,0-6.24-.63-9.25-1.95h0c-11.62-5.12-16.9-18.73-11.78-30.35,5.12-11.62,18.73-16.91,30.35-11.79,5.63,2.48,9.95,7,12.18,12.73s2.09,11.99-.39,17.62c-3.79,8.61-12.25,13.74-21.1,13.74ZM303.86,114.93c9.6,4.23,20.85-.14,25.08-9.74,2.05-4.65,2.16-9.82.32-14.56-1.84-4.74-5.41-8.47-10.06-10.52-4.65-2.05-9.82-2.16-14.56-.32-4.74,1.84-8.47,5.41-10.52,10.06-4.23,9.6.14,20.85,9.74,25.08h0Z"/>
      <path class="cls--1" d="M132.38,268.12c-3.82,0-7.61-.96-11.05-2.85-5.39-2.96-9.3-7.84-11.02-13.75-1.72-5.9-1.03-12.12,1.93-17.51,2.96-5.39,7.84-9.3,13.75-11.02,5.9-1.72,12.12-1.03,17.51,1.93s9.3,7.84,11.02,13.75c1.72,5.9,1.03,12.12-1.93,17.51-2.96,5.39-7.84,9.3-13.75,11.02-2.13.62-4.3.93-6.46.93ZM132.44,226.05c-1.78,0-3.58.25-5.34.77-4.88,1.42-8.91,4.65-11.36,9.11s-3.01,9.59-1.59,14.47c2.93,10.07,13.51,15.88,23.58,12.95,10.07-2.93,15.88-13.51,12.95-23.58-1.42-4.88-4.65-8.91-9.11-11.36-2.85-1.56-5.97-2.36-9.13-2.36Z"/>
      <path class="cls--1" d="M90.01,496.29c-4.51,0-8.92-1.33-12.75-3.89-10.55-7.06-13.39-21.38-6.34-31.94,7.06-10.55,21.38-13.39,31.94-6.33,10.55,7.06,13.39,21.38,6.34,31.94-3.42,5.11-8.62,8.58-14.66,9.78-1.51.3-3.02.45-4.53.45ZM90.08,454.24c-6.14,0-12.18,2.96-15.84,8.44-5.83,8.72-3.48,20.56,5.23,26.39,8.72,5.83,20.56,3.48,26.39-5.24,5.83-8.72,3.48-20.56-5.23-26.39-3.24-2.17-6.91-3.21-10.55-3.21Z"/>
      <path class="cls--1" d="M204.23,698.3c-5.22,0-10.25-1.76-14.37-5.08-4.79-3.85-7.8-9.34-8.47-15.45-.67-6.11,1.09-12.12,4.94-16.91,3.85-4.79,9.34-7.8,15.45-8.47,6.11-.67,12.12,1.09,16.91,4.94,4.79,3.85,7.8,9.34,8.47,15.45h0c.67,6.11-1.09,12.12-4.94,16.91s-9.34,7.8-15.45,8.47c-.85.09-1.7.14-2.54.14ZM204.31,656.25c-.7,0-1.4.04-2.1.11-5.05.55-9.58,3.04-12.77,7-3.18,3.96-4.63,8.92-4.08,13.97.55,5.05,3.04,9.59,7,12.77,3.96,3.18,8.93,4.64,13.98,4.08,10.43-1.14,17.99-10.54,16.85-20.97-.55-5.05-3.04-9.59-7-12.77-3.41-2.74-7.56-4.2-11.88-4.2Z"/>
      <path class="cls--1" d="M421.62,779.63c-5.73,0-11.47-2.12-15.92-6.39-9.17-8.78-9.48-23.39-.69-32.55,4.25-4.44,9.98-6.96,16.13-7.09,6.12-.14,11.98,2.14,16.42,6.39h0c4.44,4.25,6.96,9.98,7.09,16.13.13,6.15-2.14,11.98-6.39,16.42-4.51,4.71-10.57,7.08-16.63,7.08ZM421.64,737.59c-.14,0-.28,0-.42,0-5.08.11-9.81,2.19-13.33,5.86-7.26,7.57-7,19.64.57,26.9,7.57,7.26,19.64,7,26.89-.57,3.52-3.67,5.39-8.49,5.28-13.57s-2.19-9.81-5.86-13.33h0c-3.57-3.42-8.22-5.29-13.15-5.29Z"/>
      <path class="cls--1" d="M640.44,702.24c-.51,0-1.03-.02-1.55-.05-12.67-.84-22.29-11.82-21.46-24.49.84-12.67,11.79-22.28,24.49-21.46h0c6.14.41,11.75,3.18,15.8,7.8,4.05,4.62,6.06,10.55,5.66,16.69s-3.18,11.75-7.8,15.8c-4.23,3.71-9.56,5.71-15.14,5.71ZM640.38,660.19c-4.61,0-9.01,1.65-12.51,4.71-3.82,3.35-6.11,7.98-6.45,13.05-.69,10.47,7.26,19.54,17.73,20.23,5.07.34,9.97-1.33,13.79-4.67,3.82-3.35,6.11-7.98,6.45-13.05.34-5.07-1.32-9.97-4.67-13.79-3.35-3.82-7.98-6.11-13.05-6.45h0c-.43-.03-.86-.04-1.28-.04Z"/>
      <path class="cls--1" d="M758.29,502.3c-7.09,0-14.1-3.26-18.6-9.41-7.5-10.24-5.27-24.68,4.97-32.18,4.96-3.63,11.04-5.12,17.12-4.18,6.08.94,11.43,4.19,15.06,9.15,7.5,10.24,5.27,24.68-4.97,32.18-4.09,3-8.85,4.44-13.57,4.44ZM758.23,460.27c-3.9,0-7.83,1.19-11.22,3.67-8.46,6.2-10.3,18.12-4.11,26.59,3,4.1,7.42,6.78,12.44,7.56,5.03.77,10.04-.45,14.14-3.45,8.46-6.2,10.3-18.12,4.11-26.59-3.72-5.08-9.51-7.77-15.37-7.77Z"/>
      <path class="cls--1" d="M619.41,89.01c-2.5,0-5-.41-7.43-1.24-5.82-1.98-10.53-6.11-13.24-11.62-2.72-5.52-3.12-11.76-1.14-17.58,1.98-5.82,6.11-10.52,11.62-13.24,5.52-2.72,11.76-3.12,17.58-1.14,5.82,1.98,10.52,6.11,13.24,11.62,2.72,5.52,3.12,11.76,1.14,17.58-1.98,5.82-6.11,10.52-11.62,13.24-3.21,1.58-6.67,2.38-10.15,2.38ZM619.37,46.95c-2.88,0-5.73.66-8.39,1.97-4.56,2.25-7.97,6.13-9.61,10.94-1.64,4.81-1.3,9.97.94,14.53s6.13,7.97,10.94,9.6,9.97,1.3,14.53-.94c4.56-2.25,7.97-6.13,9.6-10.94s1.3-9.97-.94-14.53-6.13-7.97-10.94-9.6c-2.01-.68-4.08-1.02-6.14-1.02Z"/>
      <path class="cls--1" d="M529.39,46.96c-2.5,0-5-.41-7.43-1.24-5.82-1.98-10.53-6.11-13.24-11.62h0c-5.61-11.39-.91-25.22,10.48-30.83,11.39-5.61,25.21-.91,30.82,10.48,2.72,5.52,3.12,11.76,1.14,17.58s-6.11,10.52-11.62,13.24c-3.21,1.58-6.67,2.38-10.15,2.38ZM512.3,32.33c2.25,4.56,6.13,7.97,10.94,9.6,4.81,1.64,9.97,1.3,14.53-.94,4.56-2.25,7.97-6.13,9.61-10.94,1.63-4.81,1.3-9.97-.95-14.53-4.64-9.41-16.06-13.29-25.47-8.66-9.41,4.63-13.29,16.06-8.66,25.47h0Z"/>
      <path class="cls--1" d="M347.97,46.07c-3.15,0-6.3-.66-9.28-1.97-5.63-2.48-9.95-7-12.18-12.73s-2.09-11.99.39-17.62c2.48-5.63,7-9.95,12.73-12.18,5.73-2.23,11.99-2.09,17.62.39,11.62,5.12,16.9,18.73,11.78,30.35-2.48,5.63-7,9.95-12.73,12.18-2.7,1.05-5.52,1.57-8.34,1.57ZM347.98,4c-2.33,0-4.66.43-6.89,1.3-4.74,1.84-8.47,5.41-10.52,10.06-2.05,4.65-2.16,9.82-.32,14.56,1.84,4.74,5.41,8.47,10.06,10.52h0c9.6,4.23,20.85-.14,25.08-9.74,4.23-9.6-.14-20.85-9.74-25.08-2.46-1.08-5.06-1.62-7.66-1.62Z"/>
      <path class="cls--1" d="M251.95,71.7c-3.1,0-6.24-.63-9.25-1.95-11.62-5.12-16.9-18.73-11.78-30.35,2.48-5.63,7-9.95,12.73-12.18,5.73-2.23,11.99-2.09,17.62.39,5.63,2.48,9.95,7,12.18,12.73,2.23,5.73,2.09,11.99-.39,17.62-3.79,8.61-12.25,13.74-21.1,13.74ZM251.99,29.65c-2.33,0-4.66.43-6.89,1.3-4.74,1.84-8.47,5.41-10.52,10.06-4.23,9.6.14,20.85,9.74,25.08h0c4.65,2.05,9.82,2.16,14.55.32,4.74-1.84,8.47-5.41,10.52-10.06,2.05-4.65,2.16-9.82.32-14.55s-5.41-8.47-10.06-10.52c-2.46-1.08-5.06-1.62-7.66-1.62Z"/>
      <path class="cls--1" d="M112.42,187.63c-3.82,0-7.61-.96-11.05-2.85-5.39-2.96-9.3-7.84-11.02-13.75-1.72-5.9-1.03-12.12,1.93-17.51,2.96-5.39,7.84-9.3,13.75-11.02,12.19-3.55,24.99,3.48,28.54,15.67,3.55,12.19-3.49,24.99-15.67,28.54h0c-2.13.62-4.3.93-6.46.93ZM112.48,145.57c-1.78,0-3.58.25-5.34.77-10.07,2.93-15.88,13.51-12.95,23.58,1.42,4.88,4.65,8.91,9.11,11.36s9.59,3.01,14.47,1.59h0c4.88-1.42,8.91-4.65,11.36-9.11s3.01-9.59,1.59-14.47c-1.42-4.88-4.65-8.91-9.11-11.36-2.85-1.56-5.97-2.36-9.13-2.36Z"/>
      <path class="cls--1" d="M55.42,268.97c-9.98,0-19.19-6.54-22.12-16.59-1.72-5.9-1.03-12.12,1.93-17.51,2.96-5.39,7.84-9.3,13.75-11.02,5.9-1.72,12.12-1.03,17.51,1.93s9.3,7.84,11.02,13.75c3.55,12.19-3.49,24.99-15.67,28.54h0c-2.14.62-4.3.92-6.42.92ZM55.4,226.92c-1.75,0-3.54.25-5.31.76-4.88,1.42-8.91,4.65-11.36,9.11s-3.01,9.59-1.59,14.47c2.93,10.07,13.51,15.88,23.58,12.95,4.88-1.42,8.91-4.65,11.36-9.11,2.45-4.45,3.01-9.59,1.59-14.47-2.42-8.3-10.03-13.71-18.27-13.71Z"/>
      <path class="cls--1" d="M22.99,447.45c-4.4,0-8.84-1.26-12.77-3.88-5.11-3.42-8.59-8.62-9.78-14.66-1.2-6.03.03-12.17,3.45-17.28,7.06-10.55,21.38-13.39,31.94-6.34,5.11,3.42,8.59,8.62,9.78,14.66s-.03,12.17-3.45,17.28c-4.43,6.63-11.74,10.21-19.17,10.21ZM23.06,405.42c-6.14,0-12.18,2.96-15.84,8.44-5.83,8.72-3.48,20.56,5.23,26.39,4.22,2.82,9.29,3.84,14.28,2.85,4.98-.99,9.28-3.86,12.11-8.08h0c2.83-4.22,3.84-9.29,2.85-14.28-.99-4.98-3.86-9.28-8.08-12.11-3.24-2.17-6.91-3.21-10.55-3.21Z"/>
      <path class="cls--1" d="M31.58,546.44c-4.4,0-8.84-1.26-12.76-3.88-5.11-3.42-8.59-8.62-9.78-14.66-1.2-6.03.03-12.17,3.45-17.28,7.06-10.55,21.39-13.39,31.94-6.33,10.55,7.06,13.39,21.38,6.34,31.94h0c-4.43,6.63-11.74,10.21-19.17,10.21ZM31.65,504.4c-6.14,0-12.18,2.96-15.84,8.44-2.82,4.22-3.84,9.29-2.85,14.28.99,4.98,3.86,9.29,8.08,12.11,8.72,5.83,20.55,3.48,26.39-5.24,5.83-8.72,3.48-20.56-5.23-26.39-3.24-2.17-6.91-3.21-10.55-3.21Z"/>
      <path class="cls--1" d="M121.53,703.98c-11.59,0-21.59-8.75-22.87-20.53-1.38-12.62,7.77-24.01,20.39-25.38,12.61-1.38,24.01,7.77,25.38,20.39.67,6.11-1.09,12.12-4.94,16.91s-9.34,7.8-15.45,8.47c-.84.09-1.68.14-2.51.14ZM121.56,661.94c-.69,0-1.38.04-2.08.11-10.43,1.14-17.99,10.54-16.85,20.97,1.14,10.43,10.55,17.99,20.97,16.85,5.05-.55,9.59-3.04,12.77-7,3.18-3.96,4.63-8.92,4.08-13.98h0c-1.06-9.73-9.32-16.96-18.9-16.96Z"/>
      <path class="cls--1" d="M191.74,774.29c-11.59,0-21.59-8.75-22.87-20.53-1.38-12.62,7.77-24.01,20.39-25.38,12.61-1.38,24.01,7.77,25.38,20.39h0c.67,6.11-1.09,12.12-4.94,16.91s-9.34,7.8-15.45,8.47c-.84.09-1.68.14-2.51.14ZM191.77,732.24c-.69,0-1.38.04-2.08.11-10.43,1.14-17.99,10.54-16.85,20.97,1.14,10.43,10.56,17.99,20.97,16.85,10.43-1.14,17.99-10.54,16.85-20.97-1.06-9.73-9.32-16.96-18.9-16.96Z"/>
      <path class="cls--1" d="M361.89,837.17c-5.96,0-11.6-2.26-15.92-6.4-4.44-4.25-6.96-9.98-7.09-16.13-.13-6.15,2.14-11.98,6.39-16.42,8.78-9.17,23.38-9.48,32.55-.69h0c9.17,8.78,9.48,23.39.69,32.55-4.25,4.44-9.98,6.96-16.13,7.09-.17,0-.34,0-.5,0ZM361.91,795.13c-5.01,0-10.01,1.96-13.74,5.85-3.52,3.67-5.39,8.49-5.28,13.57s2.19,9.81,5.86,13.33c3.67,3.52,8.5,5.4,13.57,5.28,5.08-.11,9.81-2.19,13.33-5.86,7.26-7.57,7-19.64-.57-26.9h0c-3.68-3.53-8.42-5.28-13.16-5.28Z"/>
      <path class="cls--1" d="M460.87,845.9c-5.96,0-11.6-2.26-15.91-6.4-9.17-8.78-9.48-23.39-.69-32.55,4.25-4.44,9.98-6.96,16.13-7.09,6.12-.09,11.98,2.14,16.42,6.39,9.17,8.78,9.48,23.39.69,32.55-4.25,4.44-9.98,6.96-16.13,7.09-.17,0-.34,0-.5,0ZM460.89,803.85c-.14,0-.28,0-.42,0-5.08.11-9.81,2.19-13.33,5.86-3.52,3.67-5.39,8.49-5.28,13.57.11,5.08,2.19,9.81,5.86,13.33,3.67,3.52,8.5,5.4,13.57,5.28,5.08-.11,9.81-2.19,13.33-5.86,7.26-7.57,7-19.64-.57-26.89-3.57-3.42-8.22-5.29-13.15-5.29Z"/>
      <path class="cls--1" d="M631.66,784.69c-.51,0-1.02-.02-1.53-.05-6.14-.41-11.75-3.18-15.8-7.8-4.05-4.63-6.06-10.55-5.66-16.69s3.18-11.75,7.8-15.8c4.62-4.05,10.55-6.06,16.69-5.66h0c6.14.41,11.75,3.18,15.8,7.8,4.05,4.62,6.06,10.55,5.66,16.69-.8,12.15-10.95,21.5-22.96,21.51ZM631.61,742.65c-4.61,0-9.01,1.65-12.51,4.71-3.82,3.35-6.11,7.98-6.45,13.05-.34,5.07,1.32,9.97,4.67,13.79,3.35,3.82,7.98,6.11,13.05,6.45,5.07.34,9.97-1.33,13.79-4.67,3.82-3.35,6.11-7.98,6.45-13.05.34-5.07-1.32-9.97-4.67-13.79-3.35-3.82-7.98-6.11-13.05-6.45h0c-.43-.03-.86-.04-1.28-.04Z"/>
      <path class="cls--1" d="M713.1,727.76c-.51,0-1.03-.02-1.55-.05-12.67-.84-22.29-11.82-21.46-24.49.41-6.14,3.18-11.75,7.8-15.8,4.62-4.05,10.55-6.06,16.69-5.66,6.14.41,11.75,3.18,15.8,7.8,4.05,4.63,6.06,10.55,5.66,16.69s-3.18,11.75-7.8,15.8c-4.24,3.71-9.56,5.71-15.14,5.71ZM713.04,685.71c-4.61,0-9.01,1.65-12.51,4.71-3.82,3.35-6.11,7.98-6.45,13.05-.34,5.07,1.32,9.97,4.67,13.79,3.35,3.82,7.98,6.11,13.05,6.45,5.07.34,9.97-1.33,13.79-4.67s6.11-7.98,6.45-13.05c.34-5.07-1.32-9.97-4.67-13.79-3.35-3.82-7.98-6.11-13.05-6.45-.43-.03-.86-.04-1.28-.04Z"/>
      <path class="cls--1" d="M804.57,571.1c-7.09,0-14.1-3.26-18.6-9.41-7.5-10.24-5.27-24.68,4.97-32.18h0c10.24-7.5,24.67-5.27,32.18,4.97s5.27,24.68-4.97,32.18c-4.09,3-8.85,4.44-13.57,4.44ZM804.5,529.06c-4.01,0-7.9,1.27-11.2,3.68h0c-8.46,6.2-10.3,18.12-4.11,26.59,3,4.1,7.42,6.78,12.44,7.56,5.02.77,10.04-.45,14.14-3.45,8.46-6.2,10.3-18.12,4.11-26.59-3-4.1-7.42-6.78-12.44-7.56-.98-.15-1.97-.23-2.94-.23Z"/>
      <path class="cls--1" d="M830.37,475.16c-1.18,0-2.37-.09-3.56-.27-6.08-.94-11.43-4.19-15.06-9.15s-5.12-11.04-4.18-17.12,4.19-11.42,9.15-15.06h0c10.24-7.5,24.67-5.27,32.18,4.97,7.5,10.24,5.27,24.67-4.97,32.18-3.99,2.92-8.7,4.45-13.55,4.45ZM830.28,433.11c-4.01,0-7.9,1.27-11.2,3.68h0c-4.1,3-6.78,7.42-7.56,12.44s.45,10.04,3.45,14.14c3,4.1,7.42,6.78,12.44,7.56,5.02.77,10.05-.45,14.14-3.45,8.46-6.2,10.3-18.12,4.11-26.59-3-4.1-7.42-6.78-12.44-7.56-.98-.15-1.97-.23-2.94-.23Z"/>
      <path class="cls--1" d="M799.74,296.37c-1.84,0-3.69-.22-5.53-.67-12.33-3.02-19.9-15.51-16.88-27.84h0c1.46-5.97,5.17-11.02,10.43-14.21,5.26-3.19,11.44-4.14,17.42-2.67,5.97,1.46,11.02,5.17,14.21,10.43,3.19,5.26,4.14,11.44,2.67,17.42-1.46,5.97-5.17,11.02-10.43,14.2-3.64,2.21-7.74,3.34-11.89,3.34ZM781.23,268.81c-2.5,10.19,3.76,20.51,13.94,23.01,4.93,1.21,10.04.43,14.39-2.21,4.34-2.63,7.4-6.8,8.61-11.74,1.21-4.94.43-10.05-2.21-14.39s-6.8-7.4-11.74-8.61c-4.93-1.21-10.04-.43-14.39,2.21-4.35,2.63-7.41,6.8-8.62,11.74h0Z"/>
      <path class="cls--1" d="M757.77,206.29c-1.81,0-3.65-.22-5.48-.67-12.33-3.02-19.9-15.51-16.88-27.84h0c1.46-5.97,5.17-11.02,10.43-14.21,5.26-3.19,11.44-4.14,17.42-2.67,12.33,3.02,19.9,15.51,16.88,27.84-2.57,10.49-12.01,17.54-22.36,17.54ZM739.3,178.73c-2.5,10.19,3.76,20.51,13.94,23.01,10.18,2.5,20.51-3.76,23.01-13.94,2.5-10.19-3.76-20.51-13.94-23-4.93-1.21-10.05-.43-14.39,2.21-4.35,2.63-7.41,6.8-8.62,11.74h0Z"/>
      <circle class="cls--1" cx="571.98" cy="44.95" r="7.01"/>
      <circle class="cls--1" cx="298.13" cy="37.4" r="7.01"/>
      <circle class="cls--1" cx="83.51" cy="207.64" r="7.01"/>
      <circle class="cls--1" cx="28.52" cy="476.01" r="7.01"/>
      <circle class="cls--1" cx="158.9" cy="716.94" r="7.01"/>
      <circle class="cls--1" cx="413.65" cy="817.69" r="7.01"/>
      <circle class="cls--1" cx="673.56" cy="731.13" r="7.01"/>
      <circle class="cls--1" cx="817.02" cy="497.75" r="7.01"/>
      <circle class="cls--1" cx="776.9" cy="226.75" r="7.01"/>
    </g>
  </g>
</svg>