<?xml version="1.0" encoding="UTF-8"?>
<svg id="_图层_2" data-name="图层 2" xmlns="http://www.w3.org/2000/svg" viewBox="0 0 853.34 845.89">
  <defs>
    <style>
      .cls--1 {
        stroke-width: 20px;
      }

      .cls--1, .cls--2, .cls--3, .cls--4 {
        fill: none;
      }

      .cls--1, .cls-3, .cls--4 {
        stroke: #231815;
        stroke-miterlimit: 10;
      }

      .cls--2, .cls--5 {
        stroke-width: 0px;
      }

      .cls--3 {
        stroke-width: 10px;
      }

      .cls--4 {
        stroke-width: 4px;
      }

      .cls--5 {
        fill: #231815;
      }
    </style>
  </defs>
  <g id="_7" data-name="7">
    <g>
      <circle class="cls--5" cx="418.77" cy="137.8" r="7.01"/>
      <circle class="cls--5" cx="453.63" cy="151.87" r="7.01"/>
      <circle class="cls--5" cx="475.88" cy="197.05" r="7.01"/>
      <circle class="cls--2" cx="475.26" cy="188.41" r="7.01"/>
      <circle class="cls--5" cx="384.22" cy="156.28" r="7.01"/>
      <circle class="cls--5" cx="368.36" cy="203.14" r="7.01"/>
      <circle class="cls--5" cx="500.14" cy="238.73" r="7.01"/>
      <circle class="cls--5" cx="347.99" cy="240.04" r="7.01"/>
      <circle class="cls--5" cx="240.46" cy="207" r="7.01"/>
      <circle class="cls--5" cx="276.21" cy="195.38" r="7.01"/>
      <circle class="cls--5" cx="322.29" cy="215.68" r="7.01"/>
      <circle class="cls--2" cx="316.26" cy="209.46" r="7.01"/>
      <circle class="cls--5" cx="225.87" cy="243.37" r="7.01"/>
      <circle class="cls--5" cx="243.85" cy="289.46" r="7.01"/>
      <circle class="cls--5" cx="367.67" cy="232.02" r="7.01"/>
      <circle class="cls--5" cx="251.95" cy="330.82" r="7.01"/>
      <circle class="cls--5" cx="148.35" cy="374.63" r="7.01"/>
      <circle class="cls--5" cx="168.26" cy="342.75" r="7.01"/>
      <circle class="cls--5" cx="216.62" cy="328.68" r="7.01"/>
      <circle class="cls--2" cx="207.99" cy="327.79" r="7.01"/>
      <circle class="cls--5" cx="160.55" cy="411.87" r="7.01"/>
      <circle class="cls--5" cx="203.94" cy="435.62" r="7.01"/>
      <circle class="cls--5" cx="261.88" cy="312.03" r="7.01"/>
      <circle class="cls--5" cx="236.74" cy="462.09" r="7.01"/>
      <circle class="cls--5" cx="185.54" cy="562.25" r="7.01"/>
      <circle class="cls--5" cx="180.3" cy="525.03" r="7.01"/>
      <circle class="cls--5" cx="208.29" cy="483.17" r="7.01"/>
      <circle class="cls--2" cx="201.12" cy="488.03" r="7.01"/>
      <circle class="cls--5" cx="218.82" cy="582.94" r="7.01"/>
      <circle class="cls--5" cx="267.33" cy="573.23" r="7.01"/>
      <circle class="cls--5" cx="232.26" cy="441.32" r="7.01"/>
      <circle class="cls--5" cx="309.46" cy="572.43" r="7.01"/>
      <circle class="cls--5" cx="334.62" cy="682.07" r="7.01"/>
      <circle class="cls--5" cx="306.68" cy="656.92" r="7.01"/>
      <circle class="cls--5" cx="301.22" cy="606.86" r="7.01"/>
      <circle class="cls--2" cx="298.85" cy="615.2" r="7.01"/>
      <circle class="cls--5" cx="373.41" cy="676.53" r="7.01"/>
      <circle class="cls--5" cx="404.34" cy="637.91" r="7.01"/>
      <circle class="cls--5" cx="292.69" cy="559.4" r="7.01"/>
      <circle class="cls--5" cx="436.1" cy="610.21" r="7.01"/>
      <circle class="cls--5" cx="525.85" cy="678.03" r="7.01"/>
      <circle class="cls--5" cx="488.28" cy="676.72" r="7.01"/>
      <circle class="cls--5" cx="451.92" cy="641.88" r="7.01"/>
      <circle class="cls--2" cx="455.46" cy="649.79" r="7.01"/>
      <circle class="cls--5" cx="552" cy="648.85" r="7.01"/>
      <circle class="cls--5" cx="550.87" cy="599.39" r="7.01"/>
      <circle class="cls--5" cx="414.87" cy="611.01" r="7.01"/>
      <circle class="cls--5" cx="557.39" cy="557.75" r="7.01"/>
      <circle class="cls--5" cx="669.74" cy="552.01" r="7.01"/>
      <circle class="cls--5" cx="640.12" cy="575.16" r="7.01"/>
      <circle class="cls--5" cx="589.87" cy="571.84" r="7.01"/>
      <circle class="cls--2" cx="597.67" cy="575.63" r="7.01"/>
      <circle class="cls--5" cx="671.01" cy="512.85" r="7.01"/>
      <circle class="cls--5" cx="638.35" cy="475.69" r="7.01"/>
      <circle class="cls--5" cx="541.65" cy="572.01" r="7.01"/>
      <circle class="cls--5" cx="616.59" cy="439.6" r="7.01"/>
      <circle class="cls--5" cx="698.96" cy="362.99" r="7.01"/>
      <circle class="cls--5" cx="691.16" cy="399.76" r="7.01"/>
      <circle class="cls--5" cx="650.53" cy="429.52" r="7.01"/>
      <circle class="cls--2" cx="658.93" cy="427.4" r="7.01"/>
      <circle class="cls--5" cx="674.77" cy="332.17" r="7.01"/>
      <circle class="cls--5" cx="625.86" cy="324.7" r="7.01"/>
      <circle class="cls--5" cx="613.69" cy="460.65" r="7.01"/>
      <circle class="cls--5" cx="585.99" cy="311.04" r="7.01"/>
      <circle class="cls--5" cx="599.85" cy="199.4" r="7.01"/>
      <circle class="cls--5" cx="617.5" cy="232.59" r="7.01"/>
      <circle class="cls--5" cx="605.51" cy="281.5" r="7.01"/>
      <circle class="cls--2" cx="610.59" cy="274.48" r="7.01"/>
      <circle class="cls--5" cx="561.5" cy="191.35" r="7.01"/>
      <circle class="cls--5" cx="519.23" cy="217.06" r="7.01"/>
      <circle class="cls--5" cx="597.3" cy="329.02" r="7.01"/>
      <circle class="cls--5" cx="479.91" cy="232.22" r="7.01"/>
      <circle class="cls--4" cx="424.8" cy="192.52" r="21.02"/>
      <circle class="cls--4" cx="280.25" cy="245.05" r="21.02"/>
      <circle class="cls--4" cx="203.29" cy="378.2" r="21.02"/>
      <circle class="cls--4" cx="229.92" cy="529.67" r="21.02"/>
      <circle class="cls--4" cx="347.68" cy="628.59" r="21.02"/>
      <circle class="cls--4" cx="501.47" cy="628.66" r="21.02"/>
      <circle class="cls--4" cx="619.33" cy="529.87" r="21.02"/>
      <circle class="cls--4" cx="646.12" cy="378.43" r="21.02"/>
      <circle class="cls--4" cx="569.29" cy="245.2" r="21.02"/>
      <circle class="cls--5" cx="424.68" cy="417.35" r="22.64"/>
      <circle class="cls--1" cx="424.68" cy="417.35" r="83.18"/>
      <circle class="cls--3" cx="424.68" cy="417.35" r="127.46"/>
      <circle class="cls--4" cx="720.02" cy="250.38" r="21.02"/>
      <circle class="cls--4" cx="543.59" cy="99.61" r="21.02"/>
      <circle class="cls--4" cx="311.53" cy="97.51" r="21.02"/>
      <circle class="cls--4" cx="132.41" cy="245.08" r="21.02"/>
      <circle class="cls--4" cx="90.05" cy="473.25" r="21.02"/>
      <circle class="cls--4" cx="204.27" cy="675.27" r="21.02"/>
      <circle class="cls--4" cx="421.62" cy="756.61" r="21.02"/>
      <circle class="cls--4" cx="640.41" cy="679.21" r="21.02"/>
      <circle class="cls--4" cx="758.25" cy="479.28" r="21.02"/>
      <circle class="cls--4" cx="619.38" cy="65.97" r="21.02"/>
      <circle class="cls--4" cx="529.37" cy="23.92" r="21.02"/>
      <circle class="cls--4" cx="347.97" cy="23.03" r="21.02"/>
      <circle class="cls--4" cx="251.98" cy="48.68" r="21.02"/>
      <circle class="cls--4" cx="112.45" cy="164.59" r="21.02"/>
      <circle class="cls--4" cx="55.4" cy="245.94" r="21.02"/>
      <circle class="cls--4" cx="23.02" cy="424.43" r="21.02"/>
      <circle class="cls--4" cx="31.61" cy="523.41" r="21.02"/>
      <circle class="cls--4" cx="121.54" cy="680.95" r="21.02"/>
      <circle class="cls--4" cx="191.75" cy="751.26" r="21.02"/>
      <circle class="cls--4" cx="361.9" cy="814.14" r="21.02"/>
      <circle class="cls--4" cx="460.87" cy="822.87" r="21.02"/>
      <circle class="cls--4" cx="631.64" cy="761.66" r="21.02"/>
      <circle class="cls--4" cx="713.07" cy="704.73" r="21.02"/>
      <circle class="cls--4" cx="804.54" cy="548.08" r="21.02"/>
      <circle class="cls--4" cx="830.32" cy="452.13" r="21.02"/>
      <circle class="cls--4" cx="799.7" cy="273.33" r="21.02"/>
      <circle class="cls--4" cx="757.77" cy="183.25" r="21.02"/>
      <circle class="cls--5" cx="571.97" cy="44.94" r="7.01"/>
      <circle class="cls--5" cx="298.13" cy="37.39" r="7.01"/>
      <circle class="cls--5" cx="83.5" cy="207.63" r="7.01"/>
      <circle class="cls--5" cx="28.52" cy="476" r="7.01"/>
      <circle class="cls--5" cx="158.9" cy="716.93" r="7.01"/>
      <circle class="cls--5" cx="413.65" cy="817.69" r="7.01"/>
      <circle class="cls--5" cx="673.56" cy="731.12" r="7.01"/>
      <circle class="cls--5" cx="817.02" cy="497.74" r="7.01"/>
      <circle class="cls--5" cx="776.9" cy="226.75" r="7.01"/>
    </g>
  </g>
</svg>