<?xml version="1.0" encoding="UTF-8"?>
<svg id="_图层_2" data-name="图层 2" xmlns="http://www.w3.org/2000/svg" viewBox="0 0 250.45 250.45">
  <defs>
    <style>
      .cls--1 {
        fill: #231815;
      }

      .cls--1, .cls--2 {
        stroke: #231815;
        stroke-miterlimit: 10;
      }

      .cls--2 {
        fill: #fff;
      }
    </style>
  </defs>
  <g id="_图层_1-2" data-name="图层 1">
    <g>
      <path class="cls--2" d="M139.4,62.87c0,7.82-6.35,14.17-14.18,14.17s-14.17-6.35-14.17-14.17,6.34-14.18,14.17-14.18,14.18,6.35,14.18,14.18Z"/>
      <path class="cls--2" d="M139.4,187.59c0,7.83-6.35,14.17-14.18,14.17s-14.17-6.34-14.17-14.17,6.34-14.17,14.17-14.17,14.18,6.34,14.18,14.17Z"/>
      <path class="cls--2" d="M125.22,125.23c-34.44,0-62.36-27.92-62.36-62.36S90.78.5,125.22.5C56.34.5.5,56.34.5,125.23s55.84,124.72,124.72,124.72c34.44,0,62.36-27.92,62.36-62.36s-27.92-62.36-62.36-62.36ZM125.22,201.76c-7.83,0-14.17-6.34-14.17-14.17s6.34-14.17,14.17-14.17,14.18,6.34,14.18,14.17-6.35,14.17-14.18,14.17Z"/>
      <path class="cls--2" d="M139.4,187.59c0,7.83-6.35,14.17-14.18,14.17s-14.17-6.34-14.17-14.17,6.34-14.17,14.17-14.17,14.18,6.34,14.18,14.17Z"/>
      <path class="cls--1" d="M125.22.5c-34.44,0-62.36,27.92-62.36,62.37s27.92,62.36,62.36,62.36,62.36,27.92,62.36,62.36-27.92,62.36-62.36,62.36c68.89,0,124.73-55.84,124.73-124.72S194.11.5,125.22.5ZM125.22,77.04c-7.83,0-14.17-6.35-14.17-14.17s6.34-14.18,14.17-14.18,14.18,6.35,14.18,14.18-6.35,14.17-14.18,14.17Z"/>
      <path class="cls--2" d="M139.4,62.87c0,7.82-6.35,14.17-14.18,14.17s-14.17-6.35-14.17-14.17,6.34-14.18,14.17-14.18,14.18,6.35,14.18,14.18Z"/>
      <path class="cls--2" d="M139.4,62.87c0,7.82-6.35,14.17-14.18,14.17s-14.17-6.35-14.17-14.17,6.34-14.18,14.17-14.18,14.18,6.35,14.18,14.18Z"/>
      <path class="cls--1" d="M139.4,187.59c0,7.83-6.35,14.17-14.18,14.17s-14.17-6.34-14.17-14.17,6.34-14.17,14.17-14.17,14.18,6.34,14.18,14.17Z"/>
    </g>
  </g>
</svg>