<?xml version="1.0" encoding="UTF-8"?>
<svg class="patternfilter" id="_图层_2" data-name="图层 2" xmlns="http://www.w3.org/2000/svg" viewBox="0 0 842.39 841.89">
  <g id="_8" data-name="8">
    <g>
      <g>
        <path class="cls--1" d="M469.29,631.43c0,26.43-21.43,47.82-47.86,47.82s-47.82-21.4-47.82-47.82,21.4-47.82,47.82-47.82,47.86,21.4,47.86,47.82Z"/>
        <path class="cls--1" d="M421.43,679.75c-26.65,0-48.32-21.68-48.32-48.32s21.68-48.32,48.32-48.32,48.36,21.68,48.36,48.32-21.69,48.32-48.36,48.32ZM421.43,584.1c-26.09,0-47.32,21.23-47.32,47.32s21.23,47.32,47.32,47.32,47.36-21.23,47.36-47.32-21.24-47.32-47.36-47.32Z"/>
      </g>
      <path class="cls--1" d="M421.43,841.02c-56.89,0-112.08-11.1-164.04-33.01-50.18-21.15-95.25-51.44-133.96-90.01-38.7-38.57-69.09-83.49-90.32-133.5C11.14,532.72,0,477.72,0,421.02s11.14-111.72,33.12-163.5c21.23-50.02,51.61-94.94,90.32-133.51,38.7-38.57,83.77-68.86,133.96-90.01C309.35,12.09,364.54.99,421.43.99v1c-115.77,0-209.96,93.88-209.96,209.28s94.19,209.25,209.96,209.25,210.96,94.32,210.96,210.25-94.64,210.25-210.96,210.25ZM392.01,3C173.86,18.1,1,199.82,1,421.02s188.6,419,420.43,419c115.77,0,209.96-93.87,209.96-209.25s-94.19-209.25-209.96-209.25-210.96-94.32-210.96-210.25c0-56.17,21.94-108.98,61.79-148.7,32.82-32.72,74.56-53.32,119.76-59.57ZM421.43,678.93c-26.65,0-48.32-21.6-48.32-48.16s21.68-48.16,48.32-48.16,48.36,21.6,48.36,48.16-21.69,48.16-48.36,48.16ZM421.43,583.61c-26.09,0-47.32,21.16-47.32,47.16s21.23,47.16,47.32,47.16,47.36-21.16,47.36-47.16-21.24-47.16-47.36-47.16Z"/>
      <path class="cls--1" d="M421.43,0c-116.23,0-210.46,94.23-210.46,210.5s94.23,210.46,210.46,210.46,210.46,94.23,210.46,210.46-94.23,210.46-210.46,210.46c232.5,0,420.96-188.46,420.96-420.93S653.93,0,421.43,0ZM421.43,258.32c-26.43,0-47.82-21.43-47.82-47.82s21.4-47.86,47.82-47.86,47.86,21.43,47.86,47.86-21.43,47.82-47.86,47.82Z"/>
    </g>
  </g>
</svg>