<?xml version="1.0" encoding="UTF-8"?>
<svg id="_图层_2" data-name="图层 2" xmlns="http://www.w3.org/2000/svg" viewBox="0 0 842.39 841.89">
  <defs>
    <style>
      .cls--1 {
        fill: #fff;
      }

      .cls--1, .cls--2 {
        stroke: #231815;
        stroke-miterlimit: 10;
      }

      .cls--2 {
        fill: none;
      }

      .cls--3 {
        fill: #231815;
        stroke-width: 0px;
      }
    </style>
  </defs>
  <g id="_8" data-name="8">
    <g>
      <path class="cls--1" d="M469.29,631.43c0,26.43-21.43,47.82-47.86,47.82s-47.82-21.4-47.82-47.82,21.4-47.82,47.82-47.82,47.86,21.4,47.86,47.82Z"/>
      <path class="cls--2" d="M421.43,421.02c-116.23,0-210.46-93.91-210.46-209.75S305.19,1.49,421.43,1.49C188.96,1.49.5,189.31.5,421.02s188.46,419.5,420.93,419.5c116.23,0,210.46-93.91,210.46-209.75s-94.23-209.75-210.46-209.75ZM421.43,678.43c-26.43,0-47.82-21.32-47.82-47.66s21.4-47.66,47.82-47.66,47.86,21.32,47.86,47.66-21.43,47.66-47.86,47.66Z"/>
      <path class="cls--1" d="M469.29,631.43c0,26.43-21.43,47.82-47.86,47.82s-47.82-21.4-47.82-47.82,21.4-47.82,47.82-47.82,47.86,21.4,47.86,47.82Z"/>
      <path class="cls--3" d="M421.43,0c-116.23,0-210.46,94.23-210.46,210.5s94.23,210.46,210.46,210.46,210.46,94.23,210.46,210.46-94.23,210.46-210.46,210.46c232.5,0,420.96-188.46,420.96-420.93S653.93,0,421.43,0ZM421.43,258.32c-26.43,0-47.82-21.43-47.82-47.82s21.4-47.86,47.82-47.86,47.86,21.43,47.86,47.86-21.43,47.82-47.86,47.82Z"/>
      <path class="cls--3" d="M469.29,631.43c0,26.43-21.43,47.82-47.86,47.82s-47.82-21.4-47.82-47.82,21.4-47.82,47.82-47.82,47.86,21.4,47.86,47.82Z"/>
    </g>
  </g>
</svg>