<?xml version="1.0" encoding="UTF-8"?>
<svg id="_图层_2" data-name="图层 2" xmlns="http://www.w3.org/2000/svg" viewBox="0 0 571.58 1062.35">
  <defs>
    <style>
      .cls1 {
        stroke: #231815;
      }

      .cls1, .cls2 {
        fill: none;
        stroke-miterlimit: 10;
      }

      .cls2 {
        stroke: #000;
        stroke-width: 0px;
      }
    </style>
  </defs>
  <g id="_图层_5" data-name="图层 5">
    <g>
      <g>
        <path class="cls1" d="M254.8,160.06c.79,8.08-5.21,16.08-12.21,17.08-17,4-31,9-45,18-4,3-9,6-14,8-13,6-21,18-27,31-6,15-9,30-8,46,0,2-3,4-4,6-3,8-6,16-8,24-6,22-14,43-32,57-22,38-35,79-53,119-3,5-6,10-10,14-15,10-30,17-41,31l1,2c9,4,16-5,20.4-11.7.07,2.63-2.18,2.32,0,0-1.4,6.7-1.4,13.7-.4,20.7-5,11-14,20-15,32,0,1-1,5,3,4,12-6,12-22,20.22-32.28-.38,1.23-1.12,2.43-1.86,3.48.54-1.19,1.22-2.34,1.86-3.48.04.56,0,5.51-1.35,4.65-1.02-.65.94-3.91,1.35-4.65-.12,6.25-1.9,12.27-3.8,18.17-2.41,7.12-5.41,14.12-4.41,21.12,7,4,9-5,10-9,3-10,6-19,8.6-28.57.03,1.5.02,3.08-.75,4.41-.32-1.49.26-3.01.75-4.41,2.75,12.43-10.48,25.72-2.6,37.57,4-3,6-8,8-12,3-8,1-17,3.62-25.23-.06.92-.27,1.85-.53,2.74.14-.92.34-1.83.53-2.74.13.42.97,4.5-.09,3.96-.76-.39-.04-3.3.09-3.96,1.46,5.85.08,11.98-.49,17.85-.13,4.38-1.13,8.38.87,11.38,2,1,6,0,7-3,2-8,0-17,1-25,2-9,7-16,11-24,1-3-1-8,0-11,5-11,11-21,19-31,5-6,11-9,16-15,10-12,20-22,30-35,11-15,17-31,25-47,2-4,5-7,8-9,16-11,20-29,28.85-44.23,1.22,1.86-1.32,1.89,0,0,2.15,3.23,3.15,6.23,4.15,9.23,4,25,7,49,4,74-14,91-39,178-16,270,3,11,8,21,8,32-1,12-3,25-2,37,1,6,3,11,4,17v8c-2,9-7,17-8,26-2,19-3,38,0,57,3,22,10,41,15,63,1,4,3,8,4,12,5,22,12,41,11,63-1,20-15,35-28,50-1,1,0,4,1,5,15,7,32,6,48,5,1,0,3-1,4-2,6-13,13-27,9-42-2-8,2-16,2-24-12-24-3-51,0-76,0-6-1-12,0-18,8-32,16-64,4-95v-4c1-3,3-7,3-10,1-25,2-50,5-76,5-48,21-94,19-142-4-8-11-13-15.31-19.74"/>
        <path class="cls1" d="M316.78,160.06c-.79,8.08,5.21,16.08,12.21,17.08,17,4,31,9,45,18,4,3,9,6,14,8,13,6,21,18,27,31,6,15,9,30,8,46,0,2,3,4,4,6,3,8,6,16,8,24,6,22,14,43,32,57,22,38,35,79,53,119,3,5,6,10,10,14,15,10,30,17,41,31l-1,2c-9,4-16-5-20.4-11.7-.07,2.63,2.18,2.32,0,0,1.4,6.7,1.4,13.7.4,20.7,5,11,14,20,15,32,0,1,1,5-3,4-12-6-12-22-20.22-32.28.38,1.23,1.12,2.43,1.86,3.48-.54-1.19-1.22-2.34-1.86-3.48-.04.56,0,5.51,1.35,4.65,1.02-.65-.94-3.91-1.35-4.65.12,6.25,1.9,12.27,3.8,18.17,2.41,7.12,5.41,14.12,4.41,21.12-7,4-9-5-10-9-3-10-6-19-8.6-28.57-.03,1.5-.02,3.08.75,4.41.32-1.49-.26-3.01-.75-4.41-2.75,12.43,10.48,25.72,2.6,37.57-4-3-6-8-8-12-3-8-1-17-3.62-25.23.06.92.27,1.85.53,2.74-.14-.92-.34-1.83-.53-2.74-.13.42-.97,4.5.09,3.96.76-.39.04-3.3-.09-3.96-1.46,5.85-.08,11.98.49,17.85.13,4.38,1.13,8.38-.87,11.38-2,1-6,0-7-3-2-8,0-17-1-25-2-9-7-16-11-24-1-3,1-8,0-11-5-11-11-21-19-31-5-6-11-9-16-15-10-12-20-22-30-35-11-15-17-31-25-47-2-4-5-7-8-9-16-11-20-29-28.85-44.23-1.22,1.86,1.32,1.89,0,0-2.15,3.23-3.15,6.23-4.15,9.23-4,25-7,49-4,74,14,91,39,178,16,270-3,11-8,21-8,32,1,12,3,25,2,37-1,6-3,11-4,17v8c2,9,7,17,8,26,2,19,3,38,0,57-3,22-10,41-15,63-1,4-3,8-4,12-5,22-12,41-11,63,1,20,15,35,28,50,1,1,0,4-1,5-15,7-32,6-48,5-1,0-3-1-4-2-6-13-13-27-9-42,2-8-2-16-2-24,12-24,3-51,0-76,0-6,1-12,0-18-8-32-16-64-4-95v-4c-1-3-3-7-3-10-1-25-2-50-5-76-5-48-21-94-19-142,4-8,11-13,15.31-19.74"/>
        <polyline class="cls1" points="284.82 .5 289.99 .5 296.86 1.16 304 2.75 314.31 5.39 321.71 9.09 328.98 13.85 335.33 21.12 338.24 25.35 340.35 28.66 343.53 33.95 345.77 37.78 347.76 41.2 349.34 47.43 350.66 53.51 351.32 59.06 351.48 70.76 350.7 84.64 351.48 86.59 353.44 89.13 354.41 91.64 354.41 93.87 354.41 98.09 354.41 99.42 352.42 105.95 349.24 114.18 348.03 117.29 346.88 120.93 344.81 123.91 341.83 124.41 339.51 123.58 337.58 127.5 326.9 147.42 317.95 156.95 311.67 163.63 306.1 166.73 301.44 168.22 296.84 169.37 294.08 169.37 290.78 169.37 284.82 169.77"/>
        <polyline class="cls1" points="284.82 169.77 278.86 169.37 275.55 169.37 272.79 169.37 268.19 168.22 263.53 166.73 257.97 163.63 251.69 156.95 242.74 147.42 232.06 127.5 230.13 123.58 227.81 124.41 224.83 123.91 222.76 120.93 221.6 117.29 220.4 114.18 217.22 105.95 215.23 99.42 215.23 98.09 215.23 93.87 215.23 91.64 216.2 89.13 218.15 86.59 218.94 84.64 218.15 70.76 218.31 59.06 218.97 53.51 220.29 47.43 221.88 41.2 223.86 37.78 226.11 33.95 229.28 28.66 231.4 25.35 234.31 21.12 240.65 13.85 247.92 9.09 255.33 5.39 265.64 2.75 272.78 1.16 279.65 .5 284.82 .5"/>
      </g>
      <rect class="cls2" x=".59" y=".5" width="570.4" height="1061.35"/>
    </g>
  </g>
</svg>