<?xml version="1.0" encoding="UTF-8"?>
<svg id="_图层_2" data-name="图层 2" xmlns="http://www.w3.org/2000/svg" viewBox="0 0 570.4 1061.85">
  <defs>
    <style>
      .cls-1 {
        stroke: #e50012;
      }

      .cls-1, .cls-2, .cls-3 {
        fill: none;
        stroke-miterlimit: 10;
      }

      .cls-2 {
        stroke: #231815;
      }

      .cls-3 {
        stroke: #000;
        stroke-width: 0px;
      }
    </style>
  </defs>
  <g id="_图层_5" data-name="图层 5">
    <g>
      <g>
        <circle class="cls-2" cx="388.79" cy="295.71" r="2.52"/>
        <circle class="cls-2" cx="377.58" cy="247.66" r="2.52"/>
        <circle class="cls-2" cx="375.6" cy="276.4" r="2.52"/>
        <circle class="cls-2" cx="372.81" cy="299.98" r="2.52"/>
        <circle class="cls-2" cx="368.84" cy="321.72" r="2.52"/>
        <circle class="cls-2" cx="342.36" cy="405.06" r="2.52"/>
        <circle class="cls-2" cx="338.95" cy="451.66" r="2.52"/>
        <circle class="cls-2" cx="337.31" cy="470.41" r="2.52"/>
        <circle class="cls-2" cx="334.79" cy="518.16" r="2.52"/>
        <circle class="cls-2" cx="315.62" cy="544.83" r="2.52"/>
        <circle class="cls-2" cx="321.75" cy="627.49" r="2.52"/>
        <circle class="cls-2" cx="322.72" cy="692.38" r="2.52"/>
        <circle class="cls-2" cx="329.61" cy="802.6" r="2.52"/>
        <circle class="cls-2" cx="329.61" cy="845.25" r="2.52"/>
        <circle class="cls-2" cx="327.09" cy="903.14" r="2.52"/>
        <circle class="cls-2" cx="338.78" cy="948.33" r="2.52"/>
        <circle class="cls-2" cx="336.26" cy="982.01" r="2.52"/>
        <circle class="cls-2" cx="334.98" cy="1017.29" r="2.52"/>
        <circle class="cls-2" cx="334.98" cy="1029.75" r="2.52"/>
        <circle class="cls-2" cx="334.98" cy="1046.34" r="2.52"/>
        <circle class="cls-2" cx="344.08" cy="1058.83" r="2.52"/>
        <polyline class="cls-1" points="344.34 1058.26 335.86 1046.94 333.84 997.65 339.09 947.95 327.37 903.5 329.79 839.65 328.99 802.48 322.12 737.83 322.12 654.18 315.62 544.27 334.64 518.41 341.11 404.06 372.22 311.93 377.58 249.3 388.79 295.36"/>
      </g>
      <rect class="cls-3" x="0" y="0" width="570.4" height="1061.35"/>
    </g>
  </g>
</svg>