<?xml version="1.0" encoding="UTF-8"?>
<svg id="_图层_2" data-name="图层 2" xmlns="http://www.w3.org/2000/svg" viewBox="0 0 570.4 1061.35">
  <defs>
    <style>
      .cls-1 {
        stroke: #e50012;
      }

      .cls-1, .cls-2, .cls-3 {
        fill: none;
        stroke-miterlimit: 10;
      }

      .cls-2 {
        stroke: #231815;
      }

      .cls-3 {
        stroke: #000;
        stroke-width: 0px;
      }
    </style>
  </defs>
  <g id="_图层_5" data-name="图层 5">
    <g>
      <g>
        <circle class="cls-2" cx="329.94" cy="41.94" r="2.52"/>
        <circle class="cls-2" cx="332.46" cy="115.31" r="2.52"/>
        <circle class="cls-2" cx="329.94" cy="131.75" r="2.52"/>
        <circle class="cls-2" cx="327.41" cy="141.42" r="2.52"/>
        <circle class="cls-2" cx="317.84" cy="96.19" r="2.52"/>
        <circle class="cls-2" cx="317.84" cy="112.79" r="2.52"/>
        <circle class="cls-2" cx="317.84" cy="122.54" r="2.52"/>
        <circle class="cls-2" cx="317.63" cy="134.27" r="2.52"/>
        <circle class="cls-2" cx="317.63" cy="178.66" r="2.52"/>
        <circle class="cls-2" cx="315.62" cy="193.62" r="2.52"/>
        <circle class="cls-2" cx="315.62" cy="206.25" r="2.52"/>
        <circle class="cls-2" cx="342.89" cy="206.25" r="2.52"/>
        <circle class="cls-2" cx="342.89" cy="222.69" r="2.52"/>
        <circle class="cls-2" cx="342.89" cy="241.23" r="2.52"/>
        <circle class="cls-2" cx="344.19" cy="259.77" r="2.52"/>
        <circle class="cls-2" cx="345.42" cy="279.41" r="2.52"/>
        <circle class="cls-2" cx="345.42" cy="295.71" r="2.52"/>
        <circle class="cls-2" cx="345.42" cy="319.99" r="2.52"/>
        <circle class="cls-2" cx="321.75" cy="338.19" r="2.52"/>
        <circle class="cls-2" cx="321.75" cy="349.48" r="2.52"/>
        <circle class="cls-2" cx="321.75" cy="364.56" r="2.52"/>
        <circle class="cls-2" cx="321.75" cy="379.63" r="2.52"/>
        <circle class="cls-2" cx="321.75" cy="394.7" r="2.52"/>
        <circle class="cls-2" cx="319.23" cy="410.1" r="2.52"/>
        <circle class="cls-2" cx="321.75" cy="427.27" r="2.52"/>
        <circle class="cls-2" cx="321.75" cy="443.88" r="2.52"/>
        <circle class="cls-2" cx="321.75" cy="460.5" r="2.52"/>
        <circle class="cls-2" cx="321.75" cy="477.12" r="2.52"/>
        <circle class="cls-2" cx="321.75" cy="493.74" r="2.52"/>
        <circle class="cls-2" cx="321.75" cy="508.06" r="2.52"/>
        <circle class="cls-2" cx="377.58" cy="572.94" r="2.52"/>
        <circle class="cls-2" cx="367.81" cy="656.3" r="2.52"/>
        <circle class="cls-2" cx="363.89" cy="693.61" r="2.52"/>
        <circle class="cls-2" cx="356.32" cy="718.97" r="2.52"/>
        <circle class="cls-2" cx="356.32" cy="750.21" r="2.52"/>
        <circle class="cls-2" cx="356.32" cy="788.44" r="2.52"/>
        <circle class="cls-2" cx="353.82" cy="817.52" r="2.52"/>
        <circle class="cls-2" cx="353.79" cy="831.11" r="2.52"/>
        <circle class="cls-2" cx="353.79" cy="852.47" r="2.52"/>
        <circle class="cls-2" cx="353.47" cy="886.54" r="2.52"/>
        <circle class="cls-2" cx="368.18" cy="876.37" r="2.52"/>
        <circle class="cls-2" cx="357.5" cy="968.01" r="2.52"/>
        <circle class="cls-2" cx="350.95" cy="1017.29" r="2.52"/>
        <circle class="cls-2" cx="354.98" cy="1027.22" r="2.52"/>
        <circle class="cls-2" cx="360.02" cy="1038.22" r="2.52"/>
        <circle class="cls-2" cx="368.18" cy="1051.39" r="2.52"/>
        <g>
          <polyline class="cls-1" points="366.97 1051.39 350.81 1017.85 368.18 875.62 352.83 886.53 356.38 720.06 361.49 708.28 377.58 572.47 321.45 508.1 321.17 337.05 345.31 319.01 343.37 205.24 315.62 205.24 317.84 173.61 319.02 149.47 320.7 135.51"/>
          <polyline class="cls-1" points="329.22 40.7 336.99 101.19 327 141.42 320.7 135.51 317.84 132.82 317.84 96.19"/>
        </g>
      </g>
      <rect class="cls-3" x="0" y="0" width="570.4" height="1061.35"/>
    </g>
  </g>
</svg>