<?xml version="1.0" encoding="UTF-8"?>
<svg id="_图层_2" data-name="图层 2" xmlns="http://www.w3.org/2000/svg" viewBox="0 0 570.4 1061.35">
  <defs>
    <style>
      .cls-1 {
        stroke: #e50012;
      }

      .cls-1, .cls-2, .cls-3 {
        fill: none;
        stroke-miterlimit: 10;
      }

      .cls-2 {
        stroke: #231815;
      }

      .cls-3 {
        stroke: #000;
        stroke-width: 0px;
      }
    </style>
  </defs>
  <g id="_图层_8" data-name="图层 8">
    <g>
      <g>
        <circle class="cls-2" cx="215.03" cy="201.21" r="2.52"/>
        <circle class="cls-2" cx="214.64" cy="222.69" r="2.52"/>
        <circle class="cls-2" cx="153.87" cy="290.13" r="2.52"/>
        <circle class="cls-2" cx="151.34" cy="302.71" r="2.52"/>
        <circle class="cls-2" cx="133.52" cy="352.19" r="2.52"/>
        <circle class="cls-2" cx="100.55" cy="406.02" r="2.52"/>
        <circle class="cls-2" cx="58.55" cy="471.38" r="2.52"/>
        <circle class="cls-2" cx="56.03" cy="480.21" r="2.52"/>
        <circle class="cls-2" cx="53.5" cy="490.45" r="2.52"/>
        <circle class="cls-2" cx="32.83" cy="508" r="2.52"/>
        <circle class="cls-2" cx="9.64" cy="525.15" r="2.52"/>
        <polyline class="cls-1" points="214.64 222.21 214.64 201.78 210.5 203.04 203.76 207.25 197.02 211.99 189.22 219.47 182.06 227.69 171.74 243.7 163.94 258.87 158.67 273.4 152.99 294.47 151.09 307.53 151.09 309.85 144.77 323.33 132.34 354.93 125.6 365.47 110.43 390.33 84.31 432.25 63.87 465.11 57.55 476.28 54.39 481.76 54.39 485.76 53.34 491.24 46.6 499.03 34.8 506.62 21.95 514.2 14.15 520.1 7.83 525.15"/>
      </g>
      <rect class="cls-3" x="0" y="0" width="570.4" height="1061.35"/>
    </g>
  </g>
</svg>